<?xml version="1.0" encoding="UTF-8" standalone="no"?><!DOCTYPE svg PUBLIC "-//W3C//DTD SVG 1.1//EN" "http://www.w3.org/Graphics/SVG/1.1/DTD/svg11.dtd"><svg width="100%" height="100%" viewBox="0 0 123 123" version="1.1" xmlns="http://www.w3.org/2000/svg" xmlns:xlink="http://www.w3.org/1999/xlink" xml:space="preserve" xmlns:serif="http://www.serif.com/" style="fill-rule:evenodd;clip-rule:evenodd;stroke-linejoin:round;stroke-miterlimit:2;"><circle cx="61.689" cy="61.44" r="61.44" style="fill:#0ae194;"/><clipPath id="_clip1"><circle cx="61.689" cy="61.44" r="61.44"/></clipPath><g clip-path="url(#_clip1)"><g id="stem"><path d="M58.459,61.851c4.899,1.943 6.452,-4.175 4.251,-13.739c-2.202,-9.565 -0.294,-21.453 -6.529,-16.473c-12.828,10.248 -2.125,28.466 2.278,30.212Z" style="fill:#051607;"/><path d="M69.874,114.685c0,0 6.365,-4.773 12.271,2.087c-3.946,-0.431 -6.268,-1.838 -8.112,-2.171c-2.089,-0.376 -3.476,0.415 -4.265,1.711l0.106,-1.627Z" style="fill:#0a280d;"/><path d="M55.498,95.704l-1.071,0.762c-6.976,-4.188 -20.305,-2.893 -26.529,-3.006c-8.577,-0.156 -10.887,-9.831 -10.887,-9.831c0,0 4.558,8.276 11.81,8.276c7.252,0 17.525,-3.626 26.677,3.799Z" style="fill:#14511a;"/><path d="M60.917,128.039c0,0 1.716,-18.002 3.615,-25.858c1.899,-7.856 0.863,-10.101 -4.23,-12.691c-5.094,-2.59 -7.357,-7.914 -2.782,-14.735c4.576,-6.82 -1.381,-9.582 -6.129,-11.223c-4.749,-1.64 -11.249,-8.017 -4.576,-22.878c4.112,-9.156 10.457,-36.716 21.261,-44.817c6.982,-5.234 -11.412,39.381 -12.455,45.94c0,0 -3.915,13.399 3.164,15.989c7.08,2.59 10.274,10.187 6.821,16.489c-3.454,6.302 -5.526,7.166 -1.123,10.274c2.633,1.858 4.955,2.802 6.176,6.707c0.821,2.624 1.144,6.586 0.731,13.063c-1.036,16.23 -3.626,23.568 -3.626,23.568l-6.847,0.172Z" style="fill:#0a280d;"/><path d="M57.521,38.874c0,0 4.721,16.188 0.539,24.146c-4.182,7.959 -7.689,18.481 6.745,22.123c14.433,3.642 2.428,13.22 -3.103,15.783c-5.53,2.563 -15.243,10.252 -14.568,22.662l7.458,1.498c0,0 -3.238,-7.446 6.367,-13.598c9.604,-6.151 19.425,-11.547 18.777,-20.288c-0.647,-8.741 -4.175,-8.905 -11.634,-12.662c-7.46,-3.757 -6.154,-10.518 1.122,-12.849c7.336,-2.351 7.03,-16.042 1.769,-23.731c-5.26,-7.689 -3.203,-36.685 1.063,-43.209c-2.768,3.185 -18.15,20.305 -14.535,40.125Z" style="fill:#0f3c13;"/><path d="M63.493,49.247c0,0 6.34,32.834 -6.306,40.738c-4.83,3.019 -6.685,5.897 -4.051,11.957c2.635,6.059 8.958,18.179 15.545,25.029l4.305,-2.6c0,0 -10.144,-15.324 -12.411,-21.367c-1.51,-3.346 -1.962,-4.685 3.238,-8.526c12.6,-9.307 8.367,-30.186 0.837,-51.606l-1.157,6.375Z" style="fill:#14511a;"/><path d="M69.144,88.231c1.85,2.382 2.859,6.455 2.246,16.068c-1.036,16.23 -3.626,23.568 -3.626,23.568l-6.847,0.172c0,0 1.716,-18.002 3.615,-25.858c0.998,-4.126 1.185,-6.705 0.401,-8.598c1.773,-1.534 3.16,-3.331 4.211,-5.352Z" style="fill:#0a280d;"/></g><g id="seeds"><path d="M42.502,39.449c1.701,-2.881 3.449,-4.11 6.991,-3.259c3.543,0.85 -4.345,4.912 -5.857,4.062c-1.511,-0.85 -2.834,2.078 -1.134,-0.803Z" style="fill:#15531b;"/><path d="M43.918,42.424c1.135,-0.486 2.714,-0.764 3.789,-3.154c1.074,-2.39 0.977,-0.866 0.588,0.431c-0.389,1.297 -1.232,4.085 -2.334,5.317c-1.103,1.233 -3.178,-2.107 -2.043,-2.594Z" style="fill:#1a6721;"/><path d="M40.426,37.155c1.512,-2.267 4.204,-3.921 7.842,-2.74c3.637,1.181 4.015,0.189 0.236,-0.803c-3.779,-0.992 -7.841,-0.094 -9.211,2.126c-1.37,2.22 -0.378,3.684 1.133,1.417Z" style="fill:#103f15;"/><path d="M62.2,59.467c0.682,-2.294 1.271,-4.185 1.302,-5.301c0.031,-1.115 1.147,-1.89 1.178,-0.124c0.031,1.767 0.031,4.371 -0.651,6.479c-0.682,2.108 -2.511,1.24 -1.829,-1.054Z" style="fill:#238d2e;"/><path d="M75.349,56.879c-2.347,-1.848 -4.545,-4.845 -5.544,-9.04c-0.558,-2.346 -0.936,-13 -3.589,-11.595c-3.861,2.043 -2.493,10.744 -1.472,13.399c1.094,2.846 6.31,8.035 9.956,8.485c3.646,0.449 2.997,0.599 0.649,-1.249Z" style="fill:#1a6721;"/><path d="M53.46,68.703c2.039,-1.264 8.324,-12.339 8.024,-14.343c-0.357,-2.375 1.051,-2.884 1.073,0.363c0.021,3.081 -5.704,14.018 -7.238,15.227c-1.586,1.25 -3.978,0.067 -1.859,-1.247Z" style="fill:#1a6721;"/><path d="M50.595,48.083c1.837,-2.978 2.914,-7.096 1.331,-13.621c-1.584,-6.525 9.23,-5.581 7.608,-1.211c-1.622,4.369 -2.748,3.153 -3.649,7.433c-0.901,4.28 -2.118,6.577 -3.559,8.199c-1.442,1.622 -3.568,2.177 -1.731,-0.8Z" style="fill:#196521;"/><path d="M37.594,48.202c3.991,-0.266 8.035,-2.661 9.472,-7.61c1.437,-4.949 -0.106,-9.951 6.013,-11.973c6.12,-2.022 4.843,0.852 3.406,2.022c-1.437,1.171 -4.364,3.566 -5.96,10.271c-1.596,6.705 -9.313,10.483 -12.772,9.578c-3.459,-0.904 -4.15,-2.022 -0.159,-2.288Z" style="fill:#1f7b28;"/><path d="M73.137,64.003c-0.5,-1.379 -2.128,-7.306 -5.615,-10.991c-1.238,-1.308 -2.303,-0.837 -0.511,0.606c3.018,2.43 4.572,9.682 4.756,10.695c0.353,1.944 2.475,2.74 1.37,-0.31Z" style="fill:#1f7b28;"/><path d="M61.809,46.18c-0.055,-6.168 3.606,-11.29 3.227,-15.146c-0.379,-3.855 2.179,-1.43 2.306,0.15c0.126,1.58 -2.437,12.459 -1.742,16.82c0.695,4.362 -3.755,2.223 -3.791,-1.824Z" style="fill:#248f2e;"/><path d="M77.911,38.384c-2.088,-1.987 -2.929,-2.829 -4.007,-5.86c-1.078,-3.031 0.774,-2.896 1.448,-0.606c0.673,2.29 1.549,3.805 3.536,5.152c1.987,1.347 1.111,3.3 -0.977,1.314Z" style="fill:#1a6721;"/><path d="M72.845,42.392c-3.84,-3.793 -3.982,-7.111 -4.362,-10.429c-0.379,-3.319 -2.891,-3.935 -2.891,0.237c0,4.171 1.896,11.614 3.555,14.127c1.659,2.512 7.538,-0.143 3.698,-3.935Z" style="fill:#29a435;"/><path d="M75.768,40.214c-2.7,-2.794 -3.552,-4.262 -4.026,-7.198c-0.473,-2.936 -1.752,-3.315 -1.373,0.047c0.379,3.362 2.226,6.819 4.073,8.003c1.846,1.184 4.025,1.942 1.326,-0.852Z" style="fill:#1f7b28;"/><path d="M46.465,44.407c3.233,-7.612 5.227,-11.84 9.857,-13.937c4.153,-1.881 4.001,0.691 1.645,1.346c-6.291,1.75 -7.113,9.252 -9.272,14.752c-1.319,3.361 -4.142,2.339 -2.23,-2.161Z" style="fill:#238d2e;"/><path d="M78.434,41.814c1.206,1.322 3.065,2.136 3.581,0.736c0.664,-1.805 -0.555,-1.27 -2.608,-2.257c-1.519,-0.731 -2.179,0.199 -0.973,1.521Z" style="fill:#e8e818;"/><clipPath id="_clip2"><path d="M78.434,41.814c1.206,1.322 3.065,2.136 3.581,0.736c0.664,-1.805 -0.555,-1.27 -2.608,-2.257c-1.519,-0.731 -2.179,0.199 -0.973,1.521Z"/></clipPath><g clip-path="url(#_clip2)"><path d="M81.123,40.831c1.222,0.792 1.701,1.894 1.068,2.46c-0.634,0.566 -2.14,0.383 -3.363,-0.408c-1.222,-0.792 -1.7,-1.894 -1.067,-2.461c0.633,-0.566 2.14,-0.383 3.362,0.409Z" style="fill:url(#_Radial3);"/></g><path d="M74.651,34.723c0.885,2.079 3.128,4.609 5.246,5.953c0.933,0.592 -0.528,1.678 -1.598,0.983c-1.628,-1.059 -3.244,-3.534 -4.6,-6.377c-1.668,-3.498 0.067,-2.638 0.952,-0.559Z" style="fill:#0f3d14;"/><path d="M45.444,58.931c0.318,-2.773 1.409,-3.771 3.499,-4.972c1.842,-1.059 0.392,1.011 2.026,3.499c2.089,3.182 -0.092,5.663 -2.394,5.939c-1.515,0.182 -3.454,-1.657 -3.131,-4.466Z" style="fill:#e8e818;"/><clipPath id="_clip4"><path d="M45.444,58.931c0.318,-2.773 1.409,-3.771 3.499,-4.972c1.842,-1.059 0.392,1.011 2.026,3.499c2.089,3.182 -0.092,5.663 -2.394,5.939c-1.515,0.182 -3.454,-1.657 -3.131,-4.466Z"/></clipPath><g clip-path="url(#_clip4)"><path d="M52.075,59.177c-0.082,2.974 -1.884,5.341 -4.022,5.282c-2.137,-0.058 -3.807,-2.52 -3.725,-5.495c0.081,-2.974 1.883,-5.341 4.021,-5.282c2.138,0.058 3.807,2.521 3.726,5.495Z" style="fill:url(#_Radial5);"/></g><path d="M41.13,45.674c2.412,2.736 7.292,0.973 4.18,-3.694c-3.111,-4.667 -7.178,0.295 -4.18,3.694Z" style="fill:#e8e818;"/><clipPath id="_clip6"><path d="M41.13,45.674c2.412,2.736 7.292,0.973 4.18,-3.694c-3.111,-4.667 -7.178,0.295 -4.18,3.694Z"/></clipPath><g clip-path="url(#_clip6)"><path d="M45.969,46.842c-1.434,1.281 -3.911,0.851 -5.529,-0.96c-1.618,-1.81 -1.768,-4.32 -0.334,-5.601c1.434,-1.282 3.911,-0.852 5.529,0.959c1.618,1.811 1.768,4.321 0.334,5.602Z" style="fill:url(#_Radial7);"/></g><path d="M37.171,36.226c-1.59,1.656 0.073,5.16 2.268,2.772c4.284,-4.662 -1.26,-3.822 -2.268,-2.772Z" style="fill:#e8e818;"/><clipPath id="_clip8"><path d="M37.171,36.226c-1.59,1.656 0.073,5.16 2.268,2.772c4.284,-4.662 -1.26,-3.822 -2.268,-2.772Z"/></clipPath><g clip-path="url(#_clip8)"><path d="M40.486,39.502c-1.429,1.19 -3.352,1.239 -4.292,0.111c-0.94,-1.129 -0.543,-3.011 0.886,-4.201c1.428,-1.19 3.351,-1.24 4.291,-0.111c0.94,1.128 0.543,3.011 -0.885,4.201Z" style="fill:url(#_Radial9);"/></g><path d="M39.355,37.271c-2.336,2.942 -2.67,9.335 2.791,5.349c4.551,-3.322 -0.997,-7.608 -2.791,-5.349Z" style="fill:#e8e818;"/><clipPath id="_clip10"><path d="M39.355,37.271c-2.336,2.942 -2.67,9.335 2.791,5.349c4.551,-3.322 -0.997,-7.608 -2.791,-5.349Z"/></clipPath><g clip-path="url(#_clip10)"><path d="M43.37,43.062c-1.994,2.189 -4.841,2.847 -6.354,1.469c-1.513,-1.379 -1.123,-4.275 0.871,-6.464c1.994,-2.189 4.841,-2.847 6.354,-1.468c1.513,1.378 1.123,4.274 -0.871,6.463Z" style="fill:url(#_Radial11);"/></g><path d="M79.018,31.872c0.584,1.509 1.314,5.062 -1.995,1.606c-3.31,-3.455 1.411,-3.114 1.995,-1.606Z" style="fill:#e8e818;"/><clipPath id="_clip12"><path d="M79.018,31.872c0.584,1.509 1.314,5.062 -1.995,1.606c-3.31,-3.455 1.411,-3.114 1.995,-1.606Z"/></clipPath><g clip-path="url(#_clip12)"><path d="M79.415,32.125c0.68,1.166 0.654,2.449 -0.056,2.863c-0.711,0.414 -1.84,-0.196 -2.52,-1.362c-0.679,-1.166 -0.654,-2.448 0.057,-2.863c0.711,-0.414 1.84,0.196 2.519,1.362Z" style="fill:url(#_Radial13);"/></g><path d="M54.73,50.265c1.562,3.024 1.545,8.231 -3.911,5.613c-5.456,-2.617 -3.758,-4.051 -3.406,-5.109c0.694,-2.081 4.352,-6.244 7.317,-0.504Z" style="fill:#e8e818;"/><clipPath id="_clip14"><path d="M54.73,50.265c1.562,3.024 1.545,8.231 -3.911,5.613c-5.456,-2.617 -3.758,-4.051 -3.406,-5.109c0.694,-2.081 4.352,-6.244 7.317,-0.504Z"/></clipPath><g clip-path="url(#_clip14)"><path d="M57.658,54.522c-1.14,2.961 -4.855,4.291 -8.29,2.968c-3.435,-1.323 -5.299,-4.801 -4.158,-7.762c1.14,-2.961 4.855,-4.291 8.29,-2.968c3.435,1.323 5.299,4.801 4.158,7.762Z" style="fill:url(#_Radial15);"/></g><path d="M79.296,59.823c1.611,1.197 5.99,-0.119 5.019,-3.361c-0.986,-3.29 -3.592,-3.085 -5.802,-7.643c-1.677,-3.459 -4.587,-1.282 -2.624,1.841c2.256,3.592 1.795,7.966 3.407,9.163Z" style="fill:#e8e818;"/><clipPath id="_clip16"><path d="M79.296,59.823c1.611,1.197 5.99,-0.119 5.019,-3.361c-0.986,-3.29 -3.592,-3.085 -5.802,-7.643c-1.677,-3.459 -4.587,-1.282 -2.624,1.841c2.256,3.592 1.795,7.966 3.407,9.163Z"/></clipPath><g clip-path="url(#_clip16)"><path d="M83.804,54.167c1.478,3.091 1.025,6.391 -1.011,7.365c-2.037,0.974 -4.89,-0.745 -6.368,-3.836c-1.479,-3.091 -1.026,-6.391 1.011,-7.365c2.036,-0.974 4.89,0.745 6.368,3.836Z" style="fill:url(#_Radial17);"/></g><path d="M73.096,47.559c-0.288,-3.166 2.111,-4.008 0.092,-7.49c-0.814,-1.406 1.118,-0.467 2.086,-0.205c4.844,1.31 6.766,7.728 4.512,11.292c-2.366,3.743 -6.402,-0.432 -6.69,-3.597Z" style="fill:#e8e818;"/><clipPath id="_clip18"><path d="M73.096,47.559c-0.288,-3.166 2.111,-4.008 0.092,-7.49c-0.814,-1.406 1.118,-0.467 2.086,-0.205c4.844,1.31 6.766,7.728 4.512,11.292c-2.366,3.743 -6.402,-0.432 -6.69,-3.597Z"/></clipPath><g clip-path="url(#_clip18)"><path d="M81.741,43.958c1.249,3.824 0.15,7.619 -2.453,8.47c-2.602,0.85 -5.73,-1.564 -6.979,-5.388c-1.25,-3.825 -0.151,-7.62 2.452,-8.47c2.603,-0.85 5.73,1.564 6.98,5.388Z" style="fill:url(#_Radial19);"/></g><path d="M69.394,48.02c6.652,7.786 10.648,0.313 6.4,-3.914c-6.094,-6.064 -9.387,0.418 -6.4,3.914Z" style="fill:#e8e818;"/><clipPath id="_clip20"><path d="M69.394,48.02c6.652,7.786 10.648,0.313 6.4,-3.914c-6.094,-6.064 -9.387,0.418 -6.4,3.914Z"/></clipPath><g clip-path="url(#_clip20)"><path d="M77.023,43.041c2.857,3.078 3.331,7.29 1.058,9.399c-2.274,2.109 -6.438,1.323 -9.295,-1.756c-2.856,-3.078 -3.33,-7.29 -1.057,-9.399c2.273,-2.109 6.438,-1.323 9.294,1.756Z" style="fill:url(#_Radial21);"/></g><path d="M56.92,35.139c0.825,4.055 4.88,1.155 3.371,-1.98c-1.509,-3.135 -1.744,-3.418 -2.664,-2.947c-0.919,0.472 -1.045,3.268 -0.707,4.927Z" style="fill:#e8e818;"/><clipPath id="_clip22"><path d="M56.92,35.139c0.825,4.055 4.88,1.155 3.371,-1.98c-1.509,-3.135 -1.744,-3.418 -2.664,-2.947c-0.919,0.472 -1.045,3.268 -0.707,4.927Z"/></clipPath><g clip-path="url(#_clip22)"><path d="M61.061,33.483c0.334,2.168 -0.598,4.114 -2.081,4.343c-1.483,0.229 -2.959,-1.345 -3.294,-3.513c-0.335,-2.168 0.598,-4.114 2.081,-4.343c1.483,-0.229 2.959,1.345 3.294,3.513Z" style="fill:url(#_Radial23);"/></g><path d="M81.975,42.952c1.839,1.202 5.006,1.402 4.951,-0.92c-0.071,-2.994 -1.785,-1.732 -4.432,-3.041c-1.797,-0.888 -1.812,-0.923 -2.947,-1.98c-1.593,-1.484 -3.182,-0.707 -2.004,1.132c1.179,1.838 2.594,3.606 4.432,4.809Z" style="fill:#e8e818;"/><clipPath id="_clip24"><path d="M81.975,42.952c1.839,1.202 5.006,1.402 4.951,-0.92c-0.071,-2.994 -1.785,-1.732 -4.432,-3.041c-1.797,-0.888 -1.812,-0.923 -2.947,-1.98c-1.593,-1.484 -3.182,-0.707 -2.004,1.132c1.179,1.838 2.594,3.606 4.432,4.809Z"/></clipPath><g clip-path="url(#_clip24)"><path d="M83.659,37.674c3.155,1.795 4.951,4.598 4.009,6.254c-0.943,1.657 -4.27,1.545 -7.425,-0.25c-3.155,-1.795 -4.951,-4.597 -4.008,-6.254c0.942,-1.657 4.269,-1.545 7.424,0.25Z" style="fill:url(#_Radial25);"/></g><path d="M78.482,63.661c0.856,1.308 5.752,1.37 5.128,-3.618c-0.334,-2.672 -3.451,-0.827 -6.023,-2.605c-2.327,-1.608 -4.897,-0.479 -2.229,1.809c1.214,1.041 1.768,2.34 3.124,4.414Z" style="fill:#e8e818;"/><clipPath id="_clip26"><path d="M78.482,63.661c0.856,1.308 5.752,1.37 5.128,-3.618c-0.334,-2.672 -3.451,-0.827 -6.023,-2.605c-2.327,-1.608 -4.897,-0.479 -2.229,1.809c1.214,1.041 1.768,2.34 3.124,4.414Z"/></clipPath><g clip-path="url(#_clip26)"><path d="M82.009,56.123c2.764,1.989 3.667,5.468 2.015,7.764c-1.652,2.297 -5.238,2.547 -8.002,0.558c-2.764,-1.988 -3.667,-5.467 -2.015,-7.764c1.652,-2.296 5.237,-2.546 8.002,-0.558Z" style="fill:url(#_Radial27);"/></g><path d="M71.232,70.955c-0.766,-2.636 1.075,-4.004 0.442,-6.836c-0.619,-2.77 1.147,-1.467 1.856,0.383c0.678,1.768 2.623,3.182 3.124,5.628c0.744,3.631 -4.155,5.186 -5.422,0.825Z" style="fill:#e8e818;"/><clipPath id="_clip28"><path d="M71.232,70.955c-0.766,-2.636 1.075,-4.004 0.442,-6.836c-0.619,-2.77 1.147,-1.467 1.856,0.383c0.678,1.768 2.623,3.182 3.124,5.628c0.744,3.631 -4.155,5.186 -5.422,0.825Z"/></clipPath><g clip-path="url(#_clip28)"><path d="M77.072,68.79c0.843,3.563 -0.002,6.818 -1.887,7.263c-1.885,0.446 -4.099,-2.085 -4.942,-5.648c-0.843,-3.563 0.003,-6.818 1.888,-7.264c1.884,-0.445 4.098,2.085 4.941,5.649Z" style="fill:url(#_Radial29);"/></g><path d="M49.09,71.201c-0.234,1.63 1.436,3.131 2.725,2.946c1.29,-0.184 4.568,-4.678 4.347,-6.151c-1.584,-0.516 -6.875,1.83 -7.072,3.205Z" style="fill:#e8e818;"/><clipPath id="_clip30"><path d="M49.09,71.201c-0.234,1.63 1.436,3.131 2.725,2.946c1.29,-0.184 4.568,-4.678 4.347,-6.151c-1.584,-0.516 -6.875,1.83 -7.072,3.205Z"/></clipPath><g clip-path="url(#_clip30)"><path d="M53.998,73.163c-1.882,1.425 -4.145,1.61 -5.051,0.414c-0.905,-1.196 -0.112,-3.324 1.77,-4.748c1.882,-1.425 4.145,-1.611 5.05,-0.414c0.906,1.196 0.113,3.324 -1.769,4.748Z" style="fill:url(#_Radial31);"/></g><path d="M35.124,46.109c2.582,-0.191 8.789,4.534 0,6.331c-6.007,1.229 -3.854,-6.044 0,-6.331Z" style="fill:#e8e818;"/><clipPath id="_clip32"><path d="M35.124,46.109c2.582,-0.191 8.789,4.534 0,6.331c-6.007,1.229 -3.854,-6.044 0,-6.331Z"/></clipPath><g clip-path="url(#_clip32)"><path d="M36.935,53.954c-2.487,0.98 -5.274,-0.171 -6.219,-2.568c-0.945,-2.398 0.308,-5.14 2.795,-6.121c2.487,-0.98 5.274,0.171 6.219,2.568c0.945,2.398 -0.308,5.14 -2.795,6.121Z" style="fill:url(#_Radial33);"/></g><path d="M61.851,59.75c0.549,-1.737 2.855,-2.118 2.441,1.243c-0.17,1.377 -0.163,2.318 -0.123,3.596c0.061,1.927 -2.366,2 -3.239,1.653c-1.533,-0.611 -1.703,-2.441 -1.013,-3.407c1.138,-1.594 1.382,-1.336 1.934,-3.085Z" style="fill:#e8e818;"/><clipPath id="_clip34"><path d="M61.851,59.75c0.549,-1.737 2.855,-2.118 2.441,1.243c-0.17,1.377 -0.163,2.318 -0.123,3.596c0.061,1.927 -2.366,2 -3.239,1.653c-1.533,-0.611 -1.703,-2.441 -1.013,-3.407c1.138,-1.594 1.382,-1.336 1.934,-3.085Z"/></clipPath><g clip-path="url(#_clip34)"><path d="M65.055,63.944c-0.491,2.556 -2.257,4.369 -3.941,4.046c-1.684,-0.324 -2.653,-2.662 -2.162,-5.218c0.491,-2.557 2.257,-4.37 3.941,-4.046c1.684,0.323 2.653,2.661 2.162,5.218Z" style="fill:url(#_Radial35);"/></g><path d="M60.044,50.338c0.972,-3.585 4.915,-10.229 6.655,-0.36c1.923,10.913 -8.094,5.665 -6.655,0.36Z" style="fill:#e8e818;"/><clipPath id="_clip36"><path d="M60.044,50.338c0.972,-3.585 4.915,-10.229 6.655,-0.36c1.923,10.913 -8.094,5.665 -6.655,0.36Z"/></clipPath><g clip-path="url(#_clip36)"><path d="M68.915,50.674c0.02,3.941 -2.242,7.152 -5.047,7.166c-2.806,0.014 -5.099,-3.175 -5.119,-7.115c-0.019,-3.941 2.243,-7.152 5.048,-7.166c2.805,-0.014 5.099,3.175 5.118,7.115Z" style="fill:url(#_Radial37);"/></g><path d="M42.24,49.405c0.66,-2.983 2.956,-2.726 4.604,-5.894c0.722,-1.386 2.229,0.537 1.934,2.256c-0.362,2.115 2.7,6.761 -1.335,8.196c-4.144,1.473 -5.703,-2.295 -5.203,-4.558Z" style="fill:#e8e818;"/><clipPath id="_clip38"><path d="M42.24,49.405c0.66,-2.983 2.956,-2.726 4.604,-5.894c0.722,-1.386 2.229,0.537 1.934,2.256c-0.362,2.115 2.7,6.761 -1.335,8.196c-4.144,1.473 -5.703,-2.295 -5.203,-4.558Z"/></clipPath><g clip-path="url(#_clip38)"><path d="M50.625,50.169c-0.557,3.41 -3.094,5.839 -5.661,5.419c-2.566,-0.419 -4.198,-3.529 -3.64,-6.94c0.557,-3.41 3.094,-5.839 5.66,-5.419c2.567,0.419 4.199,3.529 3.641,6.94Z" style="fill:url(#_Radial39);"/></g></g><g id="leaves"><path d="M33.815,-5.872c0.701,3.993 3.183,13.058 5.935,14.946c0.802,0.551 6.661,3.484 8.093,11.13c0.317,1.692 -1.827,8.476 1.12,9.39c2.425,0.752 18.777,5.637 24.488,0.011c4.463,-4.397 0.878,-15.071 0.849,-20.189c-0.025,-4.417 3.853,-14.098 3.422,-17.389c-0.432,-3.291 -44.609,-1.891 -43.907,2.101Z" style="fill:#0f3d14;"/><path d="M55.41,25.145c0,0 -2.901,3.246 -2.003,8.46c-4.593,-4.005 -4.04,-7.39 -4.006,-9.013c0.035,-1.623 6.009,0.553 6.009,0.553Z" style="fill:#15531b;"/><path d="M55.072,25.688c-1.07,2.625 -1.45,6.561 0.38,7.839c1.83,1.278 2.521,0.449 2.797,0.138c0.276,-0.311 0.898,-1.312 0.173,-2.797c-0.725,-1.485 0.75,-3.998 1.8,-4.827c1.05,-0.829 -4.079,-2.977 -5.15,-0.353Z" style="fill:#29a235;"/><path d="M71.546,5.806c2.431,-2.293 9.448,-7.128 11.907,-8.178c2.459,-1.05 4.724,-1.409 3.453,0.387c-1.271,1.796 -5.387,6.437 -7.708,8.15c-2.32,1.713 -10.083,1.934 -7.652,-0.359Z" style="fill:#1a6721;"/><path d="M73.641,26.842c0,0 8.559,-2.81 13.048,-8.094c4.227,-4.975 8.785,-12.094 15.453,-12.794c-3.244,-3.203 -9.163,-0.599 -10.653,2.642c-2.176,4.731 -6.561,9.462 -10.291,11.534c-3.729,2.072 -8.288,3.626 -8.495,3.695c0,0.725 0.938,3.017 0.938,3.017Z" style="fill:#103f15;"/><path d="M71.798,16.802c2.279,-2.901 3.416,-2.895 9.93,-2.935c4.922,-0.031 9.108,-3.587 11.908,-6.227c2.157,-2.033 6.038,-6.371 5.416,-10.791c-0.621,-4.421 3.225,-3.201 3.557,-0.069c0.26,2.452 0.794,6.354 -2.832,9.91c-3.626,3.557 -12.052,8.737 -17.715,8.668c-5.663,-0.069 -7.908,1.45 -9.876,4.04c-1.968,2.59 -2.667,0.305 -0.388,-2.596Z" style="fill:#0a280d;"/><path d="M37.388,22.059c-2.59,-0.138 -8.875,0.311 -7.943,5.111c0.794,-4.593 7.01,-4.247 8.702,-3.936c1.692,0.31 1.831,-1.036 -0.759,-1.175Zm3.984,-3.311c-5.018,0.431 -11.709,1.51 -17.266,-8.31c-5.558,-9.82 -11.655,-10.198 -15.54,-9.173c4.748,0.27 9.28,1.781 14.622,12.087c5.342,10.306 18.292,7.554 18.346,7.5c-0.108,-1.457 4.856,-2.536 -0.162,-2.104Z" style="fill:#103f15;"/><path d="M74.321,18.733c1.349,-1.565 1.726,-2.86 1.78,-4.316c0.054,-1.457 1.889,-2.105 3.777,-1.889c1.889,0.216 4.856,0.27 6.259,-1.996c1.403,-2.267 5.205,-7.979 11.277,-9.443c3.905,-0.941 11.547,-1.187 13.652,7.878c-2.308,-5.346 -8.965,-7.006 -13.166,-5.989c-1.451,0.351 -4.537,1.707 -11.277,8.255c-4.521,4.392 -5.696,3.276 -5.661,6.207c0.042,3.608 -1.046,4.468 -3.376,4.885c-2.534,0.452 -4.614,-2.027 -3.265,-3.592Z" style="fill:#29a435;"/><path d="M86.161,5.197c-3.499,1.057 -4.273,0.647 -4.835,0.517c0.432,-0.776 6.346,-3.582 8.029,-3.366c-1.381,-1.036 -10.228,-0.309 -12.852,2.868c-3.039,-1.761 -5.456,0.069 -7.114,-0.967c-1.658,-1.036 -13.986,-6.388 -23.517,-0.967c-2.74,1.559 -5.715,5.609 -7.357,3.524c-3.305,-4.195 -7.942,-6.127 -10.693,-6.073c-0.756,2.914 -1.08,9.874 4.694,11.925c5.773,2.05 4.17,6.612 11.906,2.054c1.899,-1.174 3.687,-0.187 9.489,-0.049c5.801,0.138 10.498,0.138 14.124,-0.035c3.626,-0.172 4.627,-3.142 8.115,-3.28c3.488,-0.138 9.223,-0.647 10.011,-6.151Z" style="fill:#14511a;"/><path d="M62.829,33.387c0,0 4.748,-0.432 9.352,1.151c4.604,1.583 4.35,-0.887 7.372,-3.045c3.022,-2.159 8.666,-2.412 13.393,2.243c-3.671,-6.596 -7.855,-8.203 -15.314,-5.162c1.04,-3.213 2.574,-3.839 4.552,-4.016c2.094,-0.188 3.959,1.168 4.946,3.144c0.673,-4.203 -2.196,-6.109 -4.343,-6.528c-7.55,-1.472 -7.497,1.595 -10.739,4.365c-3.241,2.77 -2.298,3.182 -6.836,3.064c-4.538,-0.117 -2.383,4.784 -2.383,4.784Z" style="fill:#14511a;"/><path d="M83.768,23.932c0,0 -3.879,-1.725 -10.647,7.344c-1.018,-3.451 -0.576,-6.813 -0.487,-8.273c1.708,-1.311 9.759,-0.78 11.134,0.929Z" style="fill:#1f7b28;"/><path d="M70.608,33.489c1.799,-0.25 -5.661,-5.17 -3.203,-5.171c3.249,-0.001 6.747,-3.045 9.092,-4.165c2.548,-1.217 4.259,-1.212 7.271,-0.221c-1.249,-2.378 -5.313,-2.18 -5.903,-2.066c1.224,-1.127 2.868,-1.004 5.045,-1.004c3.122,0 6.328,-0.422 8.1,2.025c1.772,2.447 1.602,3.221 1.071,5.566c1.792,-2.3 1.659,-4.689 0.044,-6.437c-1.614,-1.747 -4.269,-3.03 -8.051,-3.03c-3.783,0 -5.063,1.025 -7.353,-0.444c3.197,-2.463 7.224,-5.847 8.995,-10.599c1.771,-4.752 6.653,-6.956 10.066,-6.653c-7.474,-0.648 -9.764,-0.778 -14.473,7.215c-4.709,7.992 -6.394,8.467 -7.517,8.251c2.894,-3.456 7.583,-6.392 4.748,-10.915c-5.94,-0.27 -8.168,12.286 -12.826,11.678c1.823,-6.345 0.203,-10.395 -2.768,-10.8c-3.375,0.337 -5.13,6.953 -4.522,11.948c0.607,4.995 0.326,16.467 12.184,14.822Z" style="fill:#248f2e;"/><path d="M61.516,17.474c-4.107,-0.81 -7.425,-3.28 -9.186,-4.178c-1.761,-0.898 -2.556,-1.485 -4.351,-1.209c-1.796,0.276 -2.295,0.186 -3.806,-0.624c-1.449,-0.776 -2.732,-1.642 -4.39,0.327c2.003,-0.484 5.157,0.608 4.639,2.922c-2.901,0.414 -3.064,0.154 -3.798,-0.882c-0.734,-1.036 -3.281,-11.957 -10.921,-11.353c-7.641,0.604 -7.988,4.129 -8.058,5.683c-0.069,1.554 1.209,6.561 6.631,5.594c-5.318,-0.414 -4.662,-4.8 -4.628,-5.525c0.035,-0.725 0.726,-4.489 5.94,-3.799c5.214,0.691 6.768,3.557 8.599,12.329c-3.868,-0.311 -4.893,0.613 -6.206,-0.699c2.107,2.694 5.166,4.726 5.705,8.773c0.54,4.047 3.4,5.288 5.234,4.856c1.835,-0.432 5.234,-3.993 10.684,-2.968c3.775,0.711 24.682,-3.492 27.532,-7.54c-4.859,-1.054 -14.163,-0.63 -19.62,-1.707Z" style="fill:#1f7b28;"/><path d="M70.608,33.489c-4.182,-3.98 -12.41,-9.443 -15.513,-10.589c2.428,6.272 5.059,8.228 6.61,10.589c3.71,0.202 5.987,0.437 8.903,0Z" style="fill:#2eb63b;"/><path d="M43.906,15.527c-6.43,5.945 -0.2,17.358 5.091,24.459c-2.536,-7.133 -4.788,-17.61 1.317,-24.375c-2.461,-0.299 -4.074,-0.338 -6.408,-0.084Z" style="fill:#196521;"/><path d="M41.864,-1.869c1.618,1.565 2.59,2.59 3.453,5.45c0.863,2.86 1.889,7.176 5.881,7.986c-11.762,0.323 -14.082,-6.691 -14.676,-13.544c-0.594,-6.852 3.723,-1.457 5.342,0.108Zm8.063,1.414c0.58,3.454 1.906,5.746 4.696,6.769c2.708,-1.879 3.592,-4.614 2.128,-7.404c-1.465,-2.79 -7.404,-2.818 -6.824,0.635Z" style="fill:#24902f;"/><path d="M72.483,32.566c0,0 -1.463,2.408 -4.011,3.444c7.73,2.28 8.209,-2.625 11.284,-4.503c2.544,-1.553 5.608,-1.762 7.824,-0.131c2.761,2.033 3.885,7.097 2.377,11.381c2.202,-3.228 2.938,-8.166 0.724,-11.707c-2.742,-4.387 -9.635,-3.797 -12.56,-1.837c-2.006,1.344 -3.684,3.139 -4.309,4.805c-1.319,-0.27 -1.329,-1.452 -1.329,-1.452Z" style="fill:#24902f;"/></g><ellipse cx="62.924" cy="47.056" rx="50.542" ry="29.059" style="fill:url(#_Radial40);"/></g><defs><radialGradient id="_Radial3" cx="0" cy="0" r="1" gradientUnits="userSpaceOnUse" gradientTransform="matrix(2.2148,1.43442,-1.14727,1.02581,79.9757,41.8568)"><stop offset="0" style="stop-color:#e69c18;stop-opacity:0.67"/><stop offset="1" style="stop-color:#e69c18;stop-opacity:0"/></radialGradient><radialGradient id="_Radial5" cx="0" cy="0" r="1" gradientUnits="userSpaceOnUse" gradientTransform="matrix(-0.147622,5.38876,-3.87354,-0.106113,48.2011,59.0706)"><stop offset="0" style="stop-color:#e69c18;stop-opacity:0.67"/><stop offset="1" style="stop-color:#e69c18;stop-opacity:0"/></radialGradient><radialGradient id="_Radial7" cx="0" cy="0" r="1" gradientUnits="userSpaceOnUse" gradientTransform="matrix(-2.59773,2.32117,-2.93149,-3.28078,43.0374,43.5613)"><stop offset="0" style="stop-color:#e69c18;stop-opacity:0.67"/><stop offset="1" style="stop-color:#e69c18;stop-opacity:0"/></radialGradient><radialGradient id="_Radial9" cx="0" cy="0" r="1" gradientUnits="userSpaceOnUse" gradientTransform="matrix(-2.58856,2.15596,-1.70303,-2.04474,38.7828,37.4569)"><stop offset="0" style="stop-color:#e69c18;stop-opacity:0.67"/><stop offset="1" style="stop-color:#e69c18;stop-opacity:0"/></radialGradient><radialGradient id="_Radial11" cx="0" cy="0" r="1" gradientUnits="userSpaceOnUse" gradientTransform="matrix(-3.61262,3.9658,-2.74172,-2.49756,40.6284,40.5647)"><stop offset="0" style="stop-color:#e69c18;stop-opacity:0.67"/><stop offset="1" style="stop-color:#e69c18;stop-opacity:0"/></radialGradient><radialGradient id="_Radial13" cx="0" cy="0" r="1" gradientUnits="userSpaceOnUse" gradientTransform="matrix(1.23126,2.11234,-1.28797,0.750744,78.1274,32.8755)"><stop offset="0" style="stop-color:#e69c18;stop-opacity:0.67"/><stop offset="1" style="stop-color:#e69c18;stop-opacity:0"/></radialGradient><radialGradient id="_Radial15" cx="0" cy="0" r="1" gradientUnits="userSpaceOnUse" gradientTransform="matrix(-2.06599,5.365,-6.22429,-2.3969,51.434,52.1252)"><stop offset="0" style="stop-color:#e69c18;stop-opacity:0.67"/><stop offset="1" style="stop-color:#e69c18;stop-opacity:0"/></radialGradient><radialGradient id="_Radial17" cx="0" cy="0" r="1" gradientUnits="userSpaceOnUse" gradientTransform="matrix(2.67845,5.60043,-3.68964,1.7646,80.1142,55.9314)"><stop offset="0" style="stop-color:#e69c18;stop-opacity:0.67"/><stop offset="1" style="stop-color:#e69c18;stop-opacity:0"/></radialGradient><radialGradient id="_Radial19" cx="0" cy="0" r="1" gradientUnits="userSpaceOnUse" gradientTransform="matrix(2.26371,6.92886,-4.716,1.54075,77.0248,45.4989)"><stop offset="0" style="stop-color:#e69c18;stop-opacity:0.67"/><stop offset="1" style="stop-color:#e69c18;stop-opacity:0"/></radialGradient><radialGradient id="_Radial21" cx="0" cy="0" r="1" gradientUnits="userSpaceOnUse" gradientTransform="matrix(5.17579,5.57761,-4.11858,3.82187,72.9048,46.8625)"><stop offset="0" style="stop-color:#e69c18;stop-opacity:0.67"/><stop offset="1" style="stop-color:#e69c18;stop-opacity:0"/></radialGradient><radialGradient id="_Radial23" cx="0" cy="0" r="1" gradientUnits="userSpaceOnUse" gradientTransform="matrix(0.606766,3.92826,-2.68713,0.415058,58.3734,33.8979)"><stop offset="0" style="stop-color:#e69c18;stop-opacity:0.67"/><stop offset="1" style="stop-color:#e69c18;stop-opacity:0"/></radialGradient><radialGradient id="_Radial25" cx="0" cy="0" r="1" gradientUnits="userSpaceOnUse" gradientTransform="matrix(5.71637,3.2523,-1.7078,3.00171,81.9512,40.6761)"><stop offset="0" style="stop-color:#e69c18;stop-opacity:0.67"/><stop offset="1" style="stop-color:#e69c18;stop-opacity:0"/></radialGradient><radialGradient id="_Radial27" cx="0" cy="0" r="1" gradientUnits="userSpaceOnUse" gradientTransform="matrix(5.00851,3.60312,-2.99335,4.16089,79.0153,60.2842)"><stop offset="0" style="stop-color:#e69c18;stop-opacity:0.67"/><stop offset="1" style="stop-color:#e69c18;stop-opacity:0"/></radialGradient><radialGradient id="_Radial29" cx="0" cy="0" r="1" gradientUnits="userSpaceOnUse" gradientTransform="matrix(1.52717,6.45607,-3.41453,0.807702,73.6578,69.5974)"><stop offset="0" style="stop-color:#e69c18;stop-opacity:0.67"/><stop offset="1" style="stop-color:#e69c18;stop-opacity:0"/></radialGradient><radialGradient id="_Radial31" cx="0" cy="0" r="1" gradientUnits="userSpaceOnUse" gradientTransform="matrix(-3.40988,2.58119,-1.64064,-2.16736,52.3574,70.9959)"><stop offset="0" style="stop-color:#e69c18;stop-opacity:0.67"/><stop offset="1" style="stop-color:#e69c18;stop-opacity:0"/></radialGradient><radialGradient id="_Radial33" cx="0" cy="0" r="1" gradientUnits="userSpaceOnUse" gradientTransform="matrix(-4.50666,1.77604,-1.71197,-4.34407,35.223,49.6095)"><stop offset="0" style="stop-color:#e69c18;stop-opacity:0.67"/><stop offset="1" style="stop-color:#e69c18;stop-opacity:0"/></radialGradient><radialGradient id="_Radial35" cx="0" cy="0" r="1" gradientUnits="userSpaceOnUse" gradientTransform="matrix(-0.889759,4.63197,-3.05124,-0.586114,62.0035,63.3578)"><stop offset="0" style="stop-color:#e69c18;stop-opacity:0.67"/><stop offset="1" style="stop-color:#e69c18;stop-opacity:0"/></radialGradient><radialGradient id="_Radial37" cx="0" cy="0" r="1" gradientUnits="userSpaceOnUse" gradientTransform="matrix(0.0352623,7.1402,-5.08302,0.0251028,63.8324,50.6995)"><stop offset="0" style="stop-color:#e69c18;stop-opacity:0.67"/><stop offset="1" style="stop-color:#e69c18;stop-opacity:0"/></radialGradient><radialGradient id="_Radial39" cx="0" cy="0" r="1" gradientUnits="userSpaceOnUse" gradientTransform="matrix(-1.01001,6.17995,-4.65075,-0.760088,45.9744,49.4085)"><stop offset="0" style="stop-color:#e69c18;stop-opacity:0.67"/><stop offset="1" style="stop-color:#e69c18;stop-opacity:0"/></radialGradient><radialGradient id="_Radial40" cx="0" cy="0" r="1" gradientUnits="userSpaceOnUse" gradientTransform="matrix(50.5425,0,7.67591e-15,29.059,62.9241,47.0556)"><stop offset="0" style="stop-color:#e69c18;stop-opacity:0.33"/><stop offset="1" style="stop-color:#e69c18;stop-opacity:0"/></radialGradient></defs></svg>