<?xml version="1.0" encoding="UTF-8" standalone="no"?>
<!DOCTYPE svg PUBLIC "-//W3C//DTD SVG 1.1//EN" "http://www.w3.org/Graphics/SVG/1.1/DTD/svg11.dtd">
<svg width="100%" height="100%" viewBox="0 0 123 123" version="1.1" xmlns="http://www.w3.org/2000/svg" xmlns:xlink="http://www.w3.org/1999/xlink" xml:space="preserve" xmlns:serif="http://www.serif.com/" style="fill-rule:evenodd;clip-rule:evenodd;stroke-linejoin:round;stroke-miterlimit:2;">
    <circle cx="61.689" cy="61.44" r="61.44" style="fill:#0ae194;"/>
    <clipPath id="_clip1">
        <circle cx="61.689" cy="61.44" r="61.44"/>
    </clipPath>
    <g clip-path="url(#_clip1)">
        <g id="stem">
            <path d="M58.459,61.851c4.899,1.943 6.452,-4.175 4.251,-13.739c-2.202,-9.565 -0.294,-21.453 -6.529,-16.473c-12.828,10.248 -2.125,28.466 2.278,30.212Z" style="fill:#051607;"/>
            <path d="M69.874,114.685c0,0 6.365,-4.773 12.271,2.087c-3.946,-0.431 -6.268,-1.838 -8.112,-2.171c-2.089,-0.376 -3.476,0.415 -4.265,1.711l0.106,-1.627Z" style="fill:#0a280d;"/>
            <path d="M55.498,95.704l-1.071,0.762c-6.976,-4.188 -20.305,-2.893 -26.529,-3.006c-8.577,-0.156 -10.887,-9.831 -10.887,-9.831c0,0 4.558,8.276 11.81,8.276c7.252,0 17.525,-3.626 26.677,3.799Z" style="fill:#14511a;"/>
            <path d="M60.917,128.039c0,0 1.716,-18.002 3.615,-25.858c1.899,-7.856 0.863,-10.101 -4.23,-12.691c-5.094,-2.59 -7.357,-7.914 -2.782,-14.735c4.576,-6.82 -1.381,-9.582 -6.129,-11.223c-4.749,-1.64 -11.249,-8.017 -4.576,-22.878c4.112,-9.156 10.457,-36.716 21.261,-44.817c6.982,-5.234 -11.412,39.381 -12.455,45.94c0,0 -3.915,13.399 3.164,15.989c7.08,2.59 10.274,10.187 6.821,16.489c-3.454,6.302 -5.526,7.166 -1.123,10.274c2.633,1.858 4.955,2.802 6.176,6.707c0.821,2.624 1.144,6.586 0.731,13.063c-1.036,16.23 -3.626,23.568 -3.626,23.568l-6.847,0.172Z" style="fill:#0a280d;"/>
            <path d="M57.521,38.874c0,0 4.721,16.188 0.539,24.146c-4.182,7.959 -7.689,18.481 6.745,22.123c14.433,3.642 2.428,13.22 -3.103,15.783c-5.53,2.563 -15.243,10.252 -14.568,22.662l7.458,1.498c0,0 -3.238,-7.446 6.367,-13.598c9.604,-6.151 19.425,-11.547 18.777,-20.288c-0.647,-8.741 -4.175,-8.905 -11.634,-12.662c-7.46,-3.757 -6.154,-10.518 1.122,-12.849c7.336,-2.351 7.03,-16.042 1.769,-23.731c-5.26,-7.689 -3.203,-36.685 1.063,-43.209c-2.768,3.185 -18.15,20.305 -14.535,40.125Z" style="fill:#0f3c13;"/>
            <path d="M63.493,49.247c0,0 6.34,32.834 -6.306,40.738c-4.83,3.019 -6.685,5.897 -4.051,11.957c2.635,6.059 8.958,18.179 15.545,25.029l4.305,-2.6c0,0 -10.144,-15.324 -12.411,-21.367c-1.51,-3.346 -1.962,-4.685 3.238,-8.526c12.6,-9.307 8.367,-30.186 0.837,-51.606l-1.157,6.375Z" style="fill:#14511a;"/>
            <path d="M69.144,88.231c1.85,2.382 2.859,6.455 2.246,16.068c-1.036,16.23 -3.626,23.568 -3.626,23.568l-6.847,0.172c0,0 1.716,-18.002 3.615,-25.858c0.998,-4.126 1.185,-6.705 0.401,-8.598c1.773,-1.534 3.16,-3.331 4.211,-5.352Z" style="fill:#0a280d;"/>
        </g>
        <g id="seeds">
            <path d="M42.502,39.449c1.701,-2.881 3.449,-4.11 6.991,-3.259c3.543,0.85 -4.345,4.912 -5.857,4.062c-1.511,-0.85 -2.834,2.078 -1.134,-0.803Z" style="fill:#15531b;"/>
            <path d="M43.918,42.424c1.135,-0.486 2.714,-0.764 3.789,-3.154c1.074,-2.39 0.977,-0.866 0.588,0.431c-0.389,1.297 -1.232,4.085 -2.334,5.317c-1.103,1.233 -3.178,-2.107 -2.043,-2.594Z" style="fill:#1a6721;"/>
            <path d="M40.426,37.155c1.512,-2.267 4.204,-3.921 7.842,-2.74c3.637,1.181 4.015,0.189 0.236,-0.803c-3.779,-0.992 -7.841,-0.094 -9.211,2.126c-1.37,2.22 -0.378,3.684 1.133,1.417Z" style="fill:#103f15;"/>
            <path d="M62.2,59.467c0.682,-2.294 1.271,-4.185 1.302,-5.301c0.031,-1.115 1.147,-1.89 1.178,-0.124c0.031,1.767 0.031,4.371 -0.651,6.479c-0.682,2.108 -2.511,1.24 -1.829,-1.054Z" style="fill:#238d2e;"/>
            <path d="M75.349,56.879c-2.347,-1.848 -4.545,-4.845 -5.544,-9.04c-0.558,-2.346 -0.936,-13 -3.589,-11.595c-3.861,2.043 -2.493,10.744 -1.472,13.399c1.094,2.846 6.31,8.035 9.956,8.485c3.646,0.449 2.997,0.599 0.649,-1.249Z" style="fill:#1a6721;"/>
            <path d="M53.46,68.703c2.039,-1.264 8.324,-12.339 8.024,-14.343c-0.357,-2.375 1.051,-2.884 1.073,0.363c0.021,3.081 -5.704,14.018 -7.238,15.227c-1.586,1.25 -3.978,0.067 -1.859,-1.247Z" style="fill:#1a6721;"/>
            <path d="M50.595,48.083c1.837,-2.978 2.914,-7.096 1.331,-13.621c-1.584,-6.525 9.23,-5.581 7.608,-1.211c-1.622,4.369 -2.748,3.153 -3.649,7.433c-0.901,4.28 -2.118,6.577 -3.559,8.199c-1.442,1.622 -3.568,2.177 -1.731,-0.8Z" style="fill:#196521;"/>
            <path d="M37.594,48.202c3.991,-0.266 8.035,-2.661 9.472,-7.61c1.437,-4.949 -0.106,-9.951 6.013,-11.973c6.12,-2.022 4.843,0.852 3.406,2.022c-1.437,1.171 -4.364,3.566 -5.96,10.271c-1.596,6.705 -9.313,10.483 -12.772,9.578c-3.459,-0.904 -4.15,-2.022 -0.159,-2.288Z" style="fill:#1f7b28;"/>
            <path d="M73.137,64.003c-0.5,-1.379 -2.128,-7.306 -5.615,-10.991c-1.238,-1.308 -2.303,-0.837 -0.511,0.606c3.018,2.43 4.572,9.682 4.756,10.695c0.353,1.944 2.475,2.74 1.37,-0.31Z" style="fill:#1f7b28;"/>
            <path d="M61.809,46.18c-0.055,-6.168 3.606,-11.29 3.227,-15.146c-0.379,-3.855 2.179,-1.43 2.306,0.15c0.126,1.58 -2.437,12.459 -1.742,16.82c0.695,4.362 -3.755,2.223 -3.791,-1.824Z" style="fill:#248f2e;"/>
            <path d="M77.911,38.384c-2.088,-1.987 -2.929,-2.829 -4.007,-5.86c-1.078,-3.031 0.774,-2.896 1.448,-0.606c0.673,2.29 1.549,3.805 3.536,5.152c1.987,1.347 1.111,3.3 -0.977,1.314Z" style="fill:#1a6721;"/>
            <path d="M72.845,42.392c-3.84,-3.793 -3.982,-7.111 -4.362,-10.429c-0.379,-3.319 -2.891,-3.935 -2.891,0.237c0,4.171 1.896,11.614 3.555,14.127c1.659,2.512 7.538,-0.143 3.698,-3.935Z" style="fill:#29a435;"/>
            <path d="M75.768,40.214c-2.7,-2.794 -3.552,-4.262 -4.026,-7.198c-0.473,-2.936 -1.752,-3.315 -1.373,0.047c0.379,3.362 2.226,6.819 4.073,8.003c1.846,1.184 4.025,1.942 1.326,-0.852Z" style="fill:#1f7b28;"/>
            <path d="M46.465,44.407c3.233,-7.612 5.227,-11.84 9.857,-13.937c4.153,-1.881 4.001,0.691 1.645,1.346c-6.291,1.75 -7.113,9.252 -9.272,14.752c-1.319,3.361 -4.142,2.339 -2.23,-2.161Z" style="fill:#238d2e;"/>
            <path d="M81.783,39.824c1.369,0.958 1.889,2.582 1.16,3.623c-0.729,1.041 -2.432,1.109 -3.801,0.151c-1.369,-0.958 -1.889,-2.581 -1.16,-3.623c0.728,-1.041 2.431,-1.109 3.801,-0.151Z" style="fill:url(#_Radial2);"/>
            <path d="M78.434,41.814c1.206,1.322 3.065,2.136 3.581,0.736c0.664,-1.805 -0.555,-1.27 -2.608,-2.257c-1.519,-0.731 -2.179,0.199 -0.973,1.521Z" style="fill:#ffe030;"/>
            <clipPath id="_clip3">
                <path d="M78.434,41.814c1.206,1.322 3.065,2.136 3.581,0.736c0.664,-1.805 -0.555,-1.27 -2.608,-2.257c-1.519,-0.731 -2.179,0.199 -0.973,1.521Z"/>
            </clipPath>
            <g clip-path="url(#_clip3)">
                <path d="M80.789,40.665c1.222,0.792 1.701,1.894 1.067,2.46c-0.633,0.566 -2.139,0.383 -3.362,-0.408c-1.222,-0.792 -1.7,-1.894 -1.067,-2.461c0.633,-0.566 2.14,-0.383 3.362,0.409Z" style="fill:url(#_Radial4);"/>
            </g>
            <path d="M74.651,34.723c0.885,2.079 3.128,4.609 5.246,5.953c0.933,0.592 -0.528,1.678 -1.598,0.983c-1.628,-1.059 -3.244,-3.534 -4.6,-6.377c-1.668,-3.498 0.067,-2.638 0.952,-0.559Z" style="fill:#0f3d14;"/>
            <path d="M53.963,58.247c-0.144,4.098 -2.66,7.341 -5.614,7.238c-2.955,-0.104 -5.237,-3.516 -5.093,-7.614c0.144,-4.098 2.659,-7.341 5.614,-7.237c2.955,0.104 5.237,3.515 5.093,7.613Z" style="fill:url(#_Radial5);"/>
            <path d="M45.444,58.931c0.318,-2.773 1.409,-3.771 3.499,-4.972c1.842,-1.059 0.392,1.011 2.026,3.499c2.089,3.182 -0.092,5.663 -2.394,5.939c-1.515,0.182 -3.454,-1.657 -3.131,-4.466Z" style="fill:#ffe030;"/>
            <clipPath id="_clip6">
                <path d="M45.444,58.931c0.318,-2.773 1.409,-3.771 3.499,-4.972c1.842,-1.059 0.392,1.011 2.026,3.499c2.089,3.182 -0.092,5.663 -2.394,5.939c-1.515,0.182 -3.454,-1.657 -3.131,-4.466Z"/>
            </clipPath>
            <g clip-path="url(#_clip6)">
                <path d="M52.489,56.965c-0.081,2.974 -1.883,5.341 -4.021,5.282c-2.138,-0.058 -3.807,-2.52 -3.726,-5.495c0.082,-2.974 1.884,-5.341 4.021,-5.282c2.138,0.058 3.808,2.521 3.726,5.495Z" style="fill:url(#_Radial7);"/>
            </g>
            <path d="M46.765,47.675c-1.954,1.56 -5.038,0.95 -6.882,-1.36c-1.845,-2.311 -1.756,-5.453 0.198,-7.013c1.954,-1.56 5.037,-0.95 6.882,1.36c1.845,2.311 1.756,5.453 -0.198,7.013Z" style="fill:url(#_Radial8);"/>
            <path d="M41.13,45.674c2.412,2.736 7.292,0.973 4.18,-3.694c-3.111,-4.667 -7.178,0.295 -4.18,3.694Z" style="fill:#ffe030;"/>
            <clipPath id="_clip9">
                <path d="M41.13,45.674c2.412,2.736 7.292,0.973 4.18,-3.694c-3.111,-4.667 -7.178,0.295 -4.18,3.694Z"/>
            </clipPath>
            <g clip-path="url(#_clip9)">
                <path d="M46.079,45.791c-1.433,1.281 -3.911,0.851 -5.529,-0.959c-1.618,-1.811 -1.767,-4.321 -0.334,-5.602c1.434,-1.281 3.912,-0.851 5.53,0.959c1.618,1.811 1.767,4.321 0.333,5.602Z" style="fill:url(#_Radial10);"/>
            </g>
            <path d="M41.211,39.921c-1.576,1.566 -3.949,1.737 -5.295,0.383c-1.345,-1.355 -1.158,-3.726 0.418,-5.292c1.576,-1.566 3.949,-1.738 5.295,-0.383c1.346,1.354 1.158,3.725 -0.418,5.292Z" style="fill:url(#_Radial11);"/>
            <path d="M37.171,36.226c-1.59,1.656 0.073,5.16 2.268,2.772c4.284,-4.662 -1.26,-3.822 -2.268,-2.772Z" style="fill:#ffe030;"/>
            <clipPath id="_clip12">
                <path d="M37.171,36.226c-1.59,1.656 0.073,5.16 2.268,2.772c4.284,-4.662 -1.26,-3.822 -2.268,-2.772Z"/>
            </clipPath>
            <g clip-path="url(#_clip12)">
                <path d="M41.094,38.783c-1.429,1.19 -3.352,1.24 -4.291,0.111c-0.94,-1.129 -0.544,-3.011 0.885,-4.201c1.429,-1.19 3.352,-1.239 4.292,-0.111c0.94,1.129 0.543,3.011 -0.886,4.201Z" style="fill:url(#_Radial13);"/>
            </g>
            <path d="M44.202,42.876c-1.794,2.533 -4.921,3.406 -6.979,1.949c-2.058,-1.458 -2.272,-4.697 -0.478,-7.23c1.793,-2.533 4.92,-3.406 6.978,-1.948c2.058,1.457 2.273,4.697 0.479,7.229Z" style="fill:url(#_Radial14);"/>
            <path d="M39.355,37.271c-2.336,2.942 -2.67,9.335 2.791,5.349c4.551,-3.322 -0.997,-7.608 -2.791,-5.349Z" style="fill:#ffe030;"/>
            <clipPath id="_clip15">
                <path d="M39.355,37.271c-2.336,2.942 -2.67,9.335 2.791,5.349c4.551,-3.322 -0.997,-7.608 -2.791,-5.349Z"/>
            </clipPath>
            <g clip-path="url(#_clip15)">
                <path d="M45.274,42.474c-1.789,1.964 -4.975,1.979 -7.111,0.034c-2.136,-1.946 -2.417,-5.12 -0.628,-7.084c1.79,-1.964 4.976,-1.979 7.112,-0.034c2.135,1.946 2.416,5.12 0.627,7.084Z" style="fill:url(#_Radial16);"/>
            </g>
            <path d="M80.237,31.948c0.903,1.668 0.736,3.509 -0.373,4.108c-1.108,0.6 -2.74,-0.268 -3.642,-1.936c-0.903,-1.668 -0.736,-3.508 0.373,-4.108c1.108,-0.599 2.74,0.268 3.642,1.936Z" style="fill:url(#_Radial17);"/>
            <path d="M79.018,31.872c0.584,1.509 1.314,5.062 -1.995,1.606c-3.31,-3.455 1.411,-3.114 1.995,-1.606Z" style="fill:#ffe030;"/>
            <clipPath id="_clip18">
                <path d="M79.018,31.872c0.584,1.509 1.314,5.062 -1.995,1.606c-3.31,-3.455 1.411,-3.114 1.995,-1.606Z"/>
            </clipPath>
            <g clip-path="url(#_clip18)">
                <path d="M79.045,31.468c0.68,1.166 0.654,2.449 -0.057,2.863c-0.711,0.414 -1.839,-0.196 -2.519,-1.362c-0.68,-1.165 -0.654,-2.448 0.057,-2.863c0.711,-0.414 1.839,0.196 2.519,1.362Z" style="fill:url(#_Radial19);"/>
            </g>
            <path d="M57.879,54.754c-1.363,3.052 -5.261,4.284 -8.699,2.749c-3.439,-1.535 -5.124,-5.259 -3.761,-8.312c1.362,-3.053 5.26,-4.285 8.699,-2.75c3.439,1.535 5.124,5.26 3.761,8.313Z" style="fill:url(#_Radial20);"/>
            <path d="M54.73,50.265c1.562,3.024 1.545,8.231 -3.911,5.613c-5.456,-2.617 -3.758,-4.051 -3.406,-5.109c0.694,-2.081 4.352,-6.244 7.317,-0.504Z" style="fill:#ffe030;"/>
            <clipPath id="_clip21">
                <path d="M54.73,50.265c1.562,3.024 1.545,8.231 -3.911,5.613c-5.456,-2.617 -3.758,-4.051 -3.406,-5.109c0.694,-2.081 4.352,-6.244 7.317,-0.504Z"/>
            </clipPath>
            <g clip-path="url(#_clip21)">
                <path d="M57.334,52.526c-1.14,2.961 -4.855,4.291 -8.29,2.968c-3.435,-1.323 -5.299,-4.801 -4.158,-7.762c1.14,-2.961 4.855,-4.291 8.29,-2.968c3.435,1.323 5.299,4.801 4.158,7.762Z" style="fill:url(#_Radial22);"/>
            </g>
            <path d="M84.457,51.807c1.954,4.427 1.473,8.934 -1.073,10.058c-2.547,1.124 -6.201,-1.557 -8.155,-5.984c-1.954,-4.427 -1.473,-8.933 1.074,-10.058c2.546,-1.124 6.2,1.558 8.154,5.984Z" style="fill:url(#_Radial23);"/>
            <path d="M79.296,59.823c1.611,1.197 5.99,-0.119 5.019,-3.361c-0.986,-3.29 -3.592,-3.085 -5.802,-7.643c-1.677,-3.459 -4.587,-1.282 -2.624,1.841c2.256,3.592 1.795,7.966 3.407,9.163Z" style="fill:#ffe030;"/>
            <clipPath id="_clip24">
                <path d="M79.296,59.823c1.611,1.197 5.99,-0.119 5.019,-3.361c-0.986,-3.29 -3.592,-3.085 -5.802,-7.643c-1.677,-3.459 -4.587,-1.282 -2.624,1.841c2.256,3.592 1.795,7.966 3.407,9.163Z"/>
            </clipPath>
            <g clip-path="url(#_clip24)">
                <path d="M82.654,51.164c1.478,3.091 1.025,6.391 -1.012,7.365c-2.036,0.974 -4.889,-0.745 -6.368,-3.836c-1.478,-3.091 -1.025,-6.391 1.012,-7.365c2.036,-0.974 4.889,0.745 6.368,3.836Z" style="fill:url(#_Radial25);"/>
            </g>
            <path d="M83.805,44.887c0.769,4.915 -1.719,9.393 -5.553,9.993c-3.833,0.599 -7.57,-2.904 -8.339,-7.82c-0.769,-4.915 1.719,-9.392 5.553,-9.992c3.833,-0.6 7.57,2.904 8.339,7.819Z" style="fill:url(#_Radial26);"/>
            <path d="M73.096,47.559c-0.288,-3.166 2.111,-4.008 0.092,-7.49c-0.814,-1.406 1.118,-0.467 2.086,-0.205c4.844,1.31 6.766,7.728 4.512,11.292c-2.366,3.743 -6.402,-0.432 -6.69,-3.597Z" style="fill:#ffe030;"/>
            <clipPath id="_clip27">
                <path d="M73.096,47.559c-0.288,-3.166 2.111,-4.008 0.092,-7.49c-0.814,-1.406 1.118,-0.467 2.086,-0.205c4.844,1.31 6.766,7.728 4.512,11.292c-2.366,3.743 -6.402,-0.432 -6.69,-3.597Z"/>
            </clipPath>
            <g clip-path="url(#_clip27)">
                <path d="M80.209,41.171c1.25,3.824 0.151,7.619 -2.452,8.47c-2.603,0.85 -5.73,-1.564 -6.98,-5.388c-1.249,-3.825 -0.15,-7.62 2.453,-8.47c2.602,-0.85 5.73,1.564 6.979,5.388Z" style="fill:url(#_Radial28);"/>
            </g>
            <path d="M77.178,41.832c3.419,3.112 4.283,7.738 1.93,10.323c-2.353,2.584 -7.04,2.155 -10.458,-0.957c-3.419,-3.113 -4.283,-7.738 -1.93,-10.323c2.353,-2.585 7.04,-2.156 10.458,0.957Z" style="fill:url(#_Radial29);"/>
            <path d="M69.394,48.02c6.652,7.786 10.648,0.313 6.4,-3.914c-6.094,-6.064 -9.387,0.418 -6.4,3.914Z" style="fill:#ffe030;"/>
            <clipPath id="_clip30">
                <path d="M69.394,48.02c6.652,7.786 10.648,0.313 6.4,-3.914c-6.094,-6.064 -9.387,0.418 -6.4,3.914Z"/>
            </clipPath>
            <g clip-path="url(#_clip30)">
                <path d="M75.198,40.884c2.857,3.078 3.331,7.29 1.058,9.399c-2.273,2.11 -6.438,1.323 -9.295,-1.755c-2.856,-3.079 -3.33,-7.29 -1.057,-9.4c2.273,-2.109 6.438,-1.322 9.294,1.756Z" style="fill:url(#_Radial31);"/>
            </g>
            <path d="M62.259,33.893c0.007,2.817 -1.587,5.108 -3.559,5.113c-1.972,0.005 -3.579,-2.278 -3.586,-5.095c-0.007,-2.817 1.588,-5.108 3.56,-5.113c1.971,-0.005 3.578,2.278 3.585,5.095Z" style="fill:url(#_Radial32);"/>
            <path d="M56.92,35.139c0.825,4.055 4.88,1.155 3.371,-1.98c-1.509,-3.135 -1.744,-3.418 -2.664,-2.947c-0.919,0.472 -1.045,3.268 -0.707,4.927Z" style="fill:#ffe030;"/>
            <clipPath id="_clip33">
                <path d="M56.92,35.139c0.825,4.055 4.88,1.155 3.371,-1.98c-1.509,-3.135 -1.744,-3.418 -2.664,-2.947c-0.919,0.472 -1.045,3.268 -0.707,4.927Z"/>
            </clipPath>
            <g clip-path="url(#_clip33)">
                <path d="M60.95,32.211c0.335,2.168 -0.597,4.114 -2.08,4.343c-1.483,0.229 -2.959,-1.345 -3.294,-3.513c-0.335,-2.168 0.597,-4.114 2.08,-4.343c1.483,-0.229 2.959,1.345 3.294,3.513Z" style="fill:url(#_Radial34);"/>
            </g>
            <path d="M84.178,36.408c3.45,2.046 5.289,5.329 4.104,7.328c-1.185,1.998 -4.948,1.96 -8.398,-0.086c-3.45,-2.045 -5.289,-5.328 -4.104,-7.327c1.185,-1.998 4.948,-1.96 8.398,0.085Z" style="fill:url(#_Radial35);"/>
            <path d="M81.975,42.952c1.839,1.202 5.006,1.402 4.951,-0.92c-0.071,-2.994 -1.785,-1.732 -4.432,-3.041c-1.797,-0.888 -1.812,-0.923 -2.947,-1.98c-1.593,-1.484 -3.182,-0.707 -2.004,1.132c1.179,1.838 2.594,3.606 4.432,4.809Z" style="fill:#ffe030;"/>
            <clipPath id="_clip36">
                <path d="M81.975,42.952c1.839,1.202 5.006,1.402 4.951,-0.92c-0.071,-2.994 -1.785,-1.732 -4.432,-3.041c-1.797,-0.888 -1.812,-0.923 -2.947,-1.98c-1.593,-1.484 -3.182,-0.707 -2.004,1.132c1.179,1.838 2.594,3.606 4.432,4.809Z"/>
            </clipPath>
            <g clip-path="url(#_clip36)">
                <path d="M81.324,35.756c2.672,2.458 3.793,5.592 2.503,6.995c-1.291,1.403 -4.507,0.546 -7.179,-1.911c-2.671,-2.457 -3.792,-5.591 -2.502,-6.994c1.29,-1.403 4.507,-0.547 7.178,1.91Z" style="fill:url(#_Radial37);"/>
            </g>
            <path d="M81.833,55.795c3.558,2.11 5.256,5.832 3.788,8.307c-1.467,2.475 -5.547,2.772 -9.105,0.662c-3.559,-2.11 -5.256,-5.832 -3.789,-8.307c1.468,-2.475 5.548,-2.771 9.106,-0.662Z" style="fill:url(#_Radial38);"/>
            <path d="M78.482,63.661c0.856,1.308 5.752,1.37 5.128,-3.618c-0.334,-2.672 -3.451,-0.827 -6.023,-2.605c-2.327,-1.608 -4.897,-0.479 -2.229,1.809c1.214,1.041 1.768,2.34 3.124,4.414Z" style="fill:#ffe030;"/>
            <clipPath id="_clip39">
                <path d="M78.482,63.661c0.856,1.308 5.752,1.37 5.128,-3.618c-0.334,-2.672 -3.451,-0.827 -6.023,-2.605c-2.327,-1.608 -4.897,-0.479 -2.229,1.809c1.214,1.041 1.768,2.34 3.124,4.414Z"/>
            </clipPath>
            <g clip-path="url(#_clip39)">
                <path d="M79.525,54.179c2.764,1.989 3.667,5.468 2.015,7.764c-1.652,2.297 -5.238,2.547 -8.002,0.558c-2.764,-1.989 -3.667,-5.468 -2.015,-7.764c1.652,-2.296 5.237,-2.546 8.002,-0.558Z" style="fill:url(#_Radial40);"/>
            </g>
            <path d="M78.024,67.214c1.038,4.247 -0.208,8.205 -2.78,8.833c-2.571,0.628 -5.501,-2.31 -6.538,-6.557c-1.037,-4.247 0.209,-8.205 2.78,-8.833c2.572,-0.628 5.501,2.311 6.538,6.557Z" style="fill:url(#_Radial41);"/>
            <path d="M71.232,70.955c-0.766,-2.636 1.075,-4.004 0.442,-6.836c-0.619,-2.77 1.147,-1.467 1.856,0.383c0.678,1.768 2.623,3.182 3.124,5.628c0.744,3.631 -4.155,5.186 -5.422,0.825Z" style="fill:#ffe030;"/>
            <clipPath id="_clip42">
                <path d="M71.232,70.955c-0.766,-2.636 1.075,-4.004 0.442,-6.836c-0.619,-2.77 1.147,-1.467 1.856,0.383c0.678,1.768 2.623,3.182 3.124,5.628c0.744,3.631 -4.155,5.186 -5.422,0.825Z"/>
            </clipPath>
            <g clip-path="url(#_clip42)">
                <path d="M76.192,66.439c0.503,3.584 -0.654,6.714 -2.582,6.984c-1.927,0.27 -3.9,-2.42 -4.403,-6.004c-0.503,-3.584 0.654,-6.714 2.582,-6.984c1.927,-0.27 3.901,2.42 4.403,6.004Z" style="fill:url(#_Radial43);"/>
            </g>
            <path d="M55.281,73.947c-2.569,2.226 -5.872,2.628 -7.371,0.899c-1.498,-1.73 -0.629,-4.942 1.94,-7.168c2.569,-2.225 5.872,-2.628 7.371,-0.898c1.498,1.73 0.629,4.941 -1.94,7.167Z" style="fill:url(#_Radial44);"/>
            <path d="M49.09,71.201c-0.234,1.63 1.436,3.131 2.725,2.946c1.29,-0.184 4.568,-4.678 4.347,-6.151c-1.584,-0.516 -6.875,1.83 -7.072,3.205Z" style="fill:#ffe030;"/>
            <clipPath id="_clip45">
                <path d="M49.09,71.201c-0.234,1.63 1.436,3.131 2.725,2.946c1.29,-0.184 4.568,-4.678 4.347,-6.151c-1.584,-0.516 -6.875,1.83 -7.072,3.205Z"/>
            </clipPath>
            <g clip-path="url(#_clip45)">
                <path d="M55.767,71.944c-1.882,1.425 -4.145,1.61 -5.05,0.414c-0.906,-1.196 -0.113,-3.324 1.769,-4.749c1.882,-1.424 4.145,-1.61 5.05,-0.413c0.906,1.196 0.113,3.324 -1.769,4.748Z" style="fill:url(#_Radial46);"/>
            </g>
            <path d="M36.882,54.375c-3.657,0.985 -7.233,-0.471 -7.981,-3.249c-0.748,-2.778 1.613,-5.833 5.27,-6.818c3.657,-0.984 7.233,0.472 7.981,3.25c0.748,2.778 -1.614,5.833 -5.27,6.817Z" style="fill:url(#_Radial47);"/>
            <path d="M35.124,46.109c2.582,-0.191 8.789,4.534 0,6.331c-6.007,1.229 -3.854,-6.044 0,-6.331Z" style="fill:#ffe030;"/>
            <clipPath id="_clip48">
                <path d="M35.124,46.109c2.582,-0.191 8.789,4.534 0,6.331c-6.007,1.229 -3.854,-6.044 0,-6.331Z"/>
            </clipPath>
            <g clip-path="url(#_clip48)">
                <path d="M39.154,53.763c-2.487,0.98 -5.274,-0.171 -6.219,-2.568c-0.945,-2.398 0.308,-5.14 2.795,-6.12c2.487,-0.98 5.274,0.17 6.219,2.568c0.945,2.397 -0.308,5.14 -2.795,6.12Z" style="fill:url(#_Radial49);"/>
            </g>
            <path d="M66.142,63.337c-0.746,3.084 -3.042,5.179 -5.122,4.675c-2.081,-0.503 -3.165,-3.416 -2.418,-6.5c0.746,-3.084 3.042,-5.179 5.123,-4.675c2.081,0.503 3.164,3.416 2.417,6.5Z" style="fill:url(#_Radial50);"/>
            <path d="M61.851,59.75c0.549,-1.737 2.855,-2.118 2.441,1.243c-0.17,1.377 -0.163,2.318 -0.123,3.596c0.061,1.927 -2.366,2 -3.239,1.653c-1.533,-0.611 -1.703,-2.441 -1.013,-3.407c1.138,-1.594 1.382,-1.336 1.934,-3.085Z" style="fill:#ffe030;"/>
            <clipPath id="_clip51">
                <path d="M61.851,59.75c0.549,-1.737 2.855,-2.118 2.441,1.243c-0.17,1.377 -0.163,2.318 -0.123,3.596c0.061,1.927 -2.366,2 -3.239,1.653c-1.533,-0.611 -1.703,-2.441 -1.013,-3.407c1.138,-1.594 1.382,-1.336 1.934,-3.085Z"/>
            </clipPath>
            <g clip-path="url(#_clip51)">
                <path d="M65.746,61.784c-0.491,2.556 -2.257,4.369 -3.941,4.046c-1.684,-0.324 -2.653,-2.662 -2.161,-5.218c0.491,-2.557 2.257,-4.37 3.941,-4.046c1.684,0.323 2.652,2.661 2.161,5.218Z" style="fill:url(#_Radial52);"/>
            </g>
            <path d="M70.238,50.584c0.047,4.722 -2.738,8.584 -6.215,8.619c-3.478,0.035 -6.339,-3.771 -6.387,-8.493c-0.047,-4.722 2.738,-8.584 6.215,-8.619c3.478,-0.035 6.339,3.771 6.387,8.493Z" style="fill:url(#_Radial53);"/>
            <path d="M60.044,50.338c0.972,-3.585 4.915,-10.229 6.655,-0.36c1.923,10.913 -8.094,5.665 -6.655,0.36Z" style="fill:#ffe030;"/>
            <clipPath id="_clip54">
                <path d="M60.044,50.338c0.972,-3.585 4.915,-10.229 6.655,-0.36c1.923,10.913 -8.094,5.665 -6.655,0.36Z"/>
            </clipPath>
            <g clip-path="url(#_clip54)">
                <path d="M68.743,48.428c0.019,3.941 -2.243,7.151 -5.048,7.165c-2.806,0.014 -5.099,-3.174 -5.118,-7.115c-0.02,-3.941 2.242,-7.151 5.047,-7.165c2.806,-0.014 5.099,3.174 5.119,7.115Z" style="fill:url(#_Radial55);"/>
            </g>
            <path d="M52.324,50.863c-1.207,4.404 -4.824,7.256 -8.072,6.365c-3.248,-0.89 -4.904,-5.188 -3.697,-9.592c1.208,-4.404 4.825,-7.256 8.073,-6.365c3.247,0.89 4.904,5.188 3.696,9.592Z" style="fill:url(#_Radial56);"/>
            <path d="M42.24,49.405c0.66,-2.983 2.956,-2.726 4.604,-5.894c0.722,-1.386 2.229,0.537 1.934,2.256c-0.362,2.115 2.7,6.761 -1.335,8.196c-4.144,1.473 -5.703,-2.295 -5.203,-4.558Z" style="fill:#ffe030;"/>
            <clipPath id="_clip57">
                <path d="M42.24,49.405c0.66,-2.983 2.956,-2.726 4.604,-5.894c0.722,-1.386 2.229,0.537 1.934,2.256c-0.362,2.115 2.7,6.761 -1.335,8.196c-4.144,1.473 -5.703,-2.295 -5.203,-4.558Z"/>
            </clipPath>
            <g clip-path="url(#_clip57)">
                <path d="M51.403,48.095c-0.558,3.411 -3.094,5.839 -5.661,5.42c-2.567,-0.42 -4.198,-3.529 -3.641,-6.94c0.558,-3.411 3.094,-5.84 5.661,-5.42c2.567,0.419 4.198,3.529 3.641,6.94Z" style="fill:url(#_Radial58);"/>
            </g>
        </g>
        <g id="leaves">
            <path d="M33.815,-5.872c0.701,3.993 3.183,13.058 5.935,14.946c0.802,0.551 6.661,3.484 8.093,11.13c0.317,1.692 -1.827,8.476 1.12,9.39c2.425,0.752 18.777,5.637 24.488,0.011c4.463,-4.397 0.878,-15.071 0.849,-20.189c-0.025,-4.417 3.853,-14.098 3.422,-17.389c-0.432,-3.291 -44.609,-1.891 -43.907,2.101Z" style="fill:#0f3d14;"/>
            <path d="M55.41,25.145c0,0 -2.901,3.246 -2.003,8.46c-4.593,-4.005 -4.04,-7.39 -4.006,-9.013c0.035,-1.623 6.009,0.553 6.009,0.553Z" style="fill:#15531b;"/>
            <path d="M55.072,25.688c-1.07,2.625 -1.45,6.561 0.38,7.839c1.83,1.278 2.521,0.449 2.797,0.138c0.276,-0.311 0.898,-1.312 0.173,-2.797c-0.725,-1.485 0.75,-3.998 1.8,-4.827c1.05,-0.829 -4.079,-2.977 -5.15,-0.353Z" style="fill:#29a235;"/>
            <path d="M71.546,5.806c2.431,-2.293 9.448,-7.128 11.907,-8.178c2.459,-1.05 4.724,-1.409 3.453,0.387c-1.271,1.796 -5.387,6.437 -7.708,8.15c-2.32,1.713 -10.083,1.934 -7.652,-0.359Z" style="fill:#1a6721;"/>
            <path d="M73.641,26.842c0,0 8.559,-2.81 13.048,-8.094c4.227,-4.975 8.785,-12.094 15.453,-12.794c-3.244,-3.203 -9.163,-0.599 -10.653,2.642c-2.176,4.731 -6.561,9.462 -10.291,11.534c-3.729,2.072 -8.288,3.626 -8.495,3.695c0,0.725 0.938,3.017 0.938,3.017Z" style="fill:#103f15;"/>
            <path d="M71.798,16.802c2.279,-2.901 3.416,-2.895 9.93,-2.935c4.922,-0.031 9.108,-3.587 11.908,-6.227c2.157,-2.033 6.038,-6.371 5.416,-10.791c-0.621,-4.421 3.225,-3.201 3.557,-0.069c0.26,2.452 0.794,6.354 -2.832,9.91c-3.626,3.557 -12.052,8.737 -17.715,8.668c-5.663,-0.069 -7.908,1.45 -9.876,4.04c-1.968,2.59 -2.667,0.305 -0.388,-2.596Z" style="fill:#0a280d;"/>
            <path d="M37.388,22.059c-2.59,-0.138 -8.875,0.311 -7.943,5.111c0.794,-4.593 7.01,-4.247 8.702,-3.936c1.692,0.31 1.831,-1.036 -0.759,-1.175Zm3.984,-3.311c-5.018,0.431 -11.709,1.51 -17.266,-8.31c-5.558,-9.82 -11.655,-10.198 -15.54,-9.173c4.748,0.27 9.28,1.781 14.622,12.087c5.342,10.306 18.292,7.554 18.346,7.5c-0.108,-1.457 4.856,-2.536 -0.162,-2.104Z" style="fill:#103f15;"/>
            <path d="M74.321,18.733c1.349,-1.565 1.726,-2.86 1.78,-4.316c0.054,-1.457 1.889,-2.105 3.777,-1.889c1.889,0.216 4.856,0.27 6.259,-1.996c1.403,-2.267 5.205,-7.979 11.277,-9.443c3.905,-0.941 11.547,-1.187 13.652,7.878c-2.308,-5.346 -8.965,-7.006 -13.166,-5.989c-1.451,0.351 -4.537,1.707 -11.277,8.255c-4.521,4.392 -5.696,3.276 -5.661,6.207c0.042,3.608 -1.046,4.468 -3.376,4.885c-2.534,0.452 -4.614,-2.027 -3.265,-3.592Z" style="fill:#29a435;"/>
            <path d="M86.161,5.197c-3.499,1.057 -4.273,0.647 -4.835,0.517c0.432,-0.776 6.346,-3.582 8.029,-3.366c-1.381,-1.036 -10.228,-0.309 -12.852,2.868c-3.039,-1.761 -5.456,0.069 -7.114,-0.967c-1.658,-1.036 -13.986,-6.388 -23.517,-0.967c-2.74,1.559 -5.715,5.609 -7.357,3.524c-3.305,-4.195 -7.942,-6.127 -10.693,-6.073c-0.756,2.914 -1.08,9.874 4.694,11.925c5.773,2.05 4.17,6.612 11.906,2.054c1.899,-1.174 3.687,-0.187 9.489,-0.049c5.801,0.138 10.498,0.138 14.124,-0.035c3.626,-0.172 4.627,-3.142 8.115,-3.28c3.488,-0.138 9.223,-0.647 10.011,-6.151Z" style="fill:#14511a;"/>
            <path d="M62.829,33.387c0,0 4.748,-0.432 9.352,1.151c4.604,1.583 4.35,-0.887 7.372,-3.045c3.022,-2.159 8.666,-2.412 13.393,2.243c-3.671,-6.596 -7.855,-8.203 -15.314,-5.162c1.04,-3.213 2.574,-3.839 4.552,-4.016c2.094,-0.188 3.959,1.168 4.946,3.144c0.673,-4.203 -2.196,-6.109 -4.343,-6.528c-7.55,-1.472 -7.497,1.595 -10.739,4.365c-3.241,2.77 -2.298,3.182 -6.836,3.064c-4.538,-0.117 -2.383,4.784 -2.383,4.784Z" style="fill:#14511a;"/>
            <path d="M83.768,23.932c0,0 -3.879,-1.725 -10.647,7.344c-1.018,-3.451 -0.576,-6.813 -0.487,-8.273c1.708,-1.311 9.759,-0.78 11.134,0.929Z" style="fill:#1f7b28;"/>
            <path d="M70.608,33.489c1.799,-0.25 -5.661,-5.17 -3.203,-5.171c3.249,-0.001 6.747,-3.045 9.092,-4.165c2.548,-1.217 4.259,-1.212 7.271,-0.221c-1.249,-2.378 -5.313,-2.18 -5.903,-2.066c1.224,-1.127 2.868,-1.004 5.045,-1.004c3.122,0 6.328,-0.422 8.1,2.025c1.772,2.447 1.602,3.221 1.071,5.566c1.792,-2.3 1.659,-4.689 0.044,-6.437c-1.614,-1.747 -4.269,-3.03 -8.051,-3.03c-3.783,0 -5.063,1.025 -7.353,-0.444c3.197,-2.463 7.224,-5.847 8.995,-10.599c1.771,-4.752 6.653,-6.956 10.066,-6.653c-7.474,-0.648 -9.764,-0.778 -14.473,7.215c-4.709,7.992 -6.394,8.467 -7.517,8.251c2.894,-3.456 7.583,-6.392 4.748,-10.915c-5.94,-0.27 -8.168,12.286 -12.826,11.678c1.823,-6.345 0.203,-10.395 -2.768,-10.8c-3.375,0.337 -5.13,6.953 -4.522,11.948c0.607,4.995 0.326,16.467 12.184,14.822Z" style="fill:#248f2e;"/>
            <path d="M61.516,17.474c-4.107,-0.81 -7.425,-3.28 -9.186,-4.178c-1.761,-0.898 -2.556,-1.485 -4.351,-1.209c-1.796,0.276 -2.295,0.186 -3.806,-0.624c-1.449,-0.776 -2.732,-1.642 -4.39,0.327c2.003,-0.484 5.157,0.608 4.639,2.922c-2.901,0.414 -3.064,0.154 -3.798,-0.882c-0.734,-1.036 -3.281,-11.957 -10.921,-11.353c-7.641,0.604 -7.988,4.129 -8.058,5.683c-0.069,1.554 1.209,6.561 6.631,5.594c-5.318,-0.414 -4.662,-4.8 -4.628,-5.525c0.035,-0.725 0.726,-4.489 5.94,-3.799c5.214,0.691 6.768,3.557 8.599,12.329c-3.868,-0.311 -4.893,0.613 -6.206,-0.699c2.107,2.694 5.166,4.726 5.705,8.773c0.54,4.047 3.4,5.288 5.234,4.856c1.835,-0.432 5.234,-3.993 10.684,-2.968c3.775,0.711 24.682,-3.492 27.532,-7.54c-4.859,-1.054 -14.163,-0.63 -19.62,-1.707Z" style="fill:#1f7b28;"/>
            <path d="M70.608,33.489c-4.182,-3.98 -12.41,-9.443 -15.513,-10.589c2.428,6.272 5.059,8.228 6.61,10.589c3.71,0.202 5.987,0.437 8.903,0Z" style="fill:#2eb63b;"/>
            <path d="M43.906,15.527c-6.43,5.945 -0.2,17.358 5.091,24.459c-2.536,-7.133 -4.788,-17.61 1.317,-24.375c-2.461,-0.299 -4.074,-0.338 -6.408,-0.084Z" style="fill:#196521;"/>
            <path d="M41.864,-1.869c1.618,1.565 2.59,2.59 3.453,5.45c0.863,2.86 1.889,7.176 5.881,7.986c-11.762,0.323 -14.082,-6.691 -14.676,-13.544c-0.594,-6.852 3.723,-1.457 5.342,0.108Zm8.063,1.414c0.58,3.454 1.906,5.746 4.696,6.769c2.708,-1.879 3.592,-4.614 2.128,-7.404c-1.465,-2.79 -7.404,-2.818 -6.824,0.635Z" style="fill:#24902f;"/>
            <path d="M72.483,32.566c0,0 -1.463,2.408 -4.011,3.444c7.73,2.28 8.209,-2.625 11.284,-4.503c2.544,-1.553 5.608,-1.762 7.824,-0.131c2.761,2.033 3.885,7.097 2.377,11.381c2.202,-3.228 2.938,-8.166 0.724,-11.707c-2.742,-4.387 -9.635,-3.797 -12.56,-1.837c-2.006,1.344 -3.684,3.139 -4.309,4.805c-1.319,-0.27 -1.329,-1.452 -1.329,-1.452Z" style="fill:#24902f;"/>
        </g>
        <ellipse cx="62.924" cy="47.056" rx="50.542" ry="29.059" style="fill:url(#_Radial59);"/>
    </g>
    <defs>
        <radialGradient id="_Radial2" cx="0" cy="0" r="1" gradientUnits="userSpaceOnUse" gradientTransform="matrix(2.48063,1.73591,-1.32036,1.8868,80.4621,41.7111)"><stop offset="0" style="stop-color:#ff9018;stop-opacity:0.5"/><stop offset="1" style="stop-color:#ff9018;stop-opacity:0"/></radialGradient>
        <radialGradient id="_Radial4" cx="0" cy="0" r="1" gradientUnits="userSpaceOnUse" gradientTransform="matrix(2.2148,1.43442,-1.14727,1.02581,79.6417,41.6908)"><stop offset="0" style="stop-color:#ff9018;stop-opacity:1"/><stop offset="1" style="stop-color:#ff9018;stop-opacity:0"/></radialGradient>
        <radialGradient id="_Radial5" cx="0" cy="0" r="1" gradientUnits="userSpaceOnUse" gradientTransform="matrix(-0.260808,7.42536,-5.35382,-0.188047,48.6094,58.0592)"><stop offset="0" style="stop-color:#ff9018;stop-opacity:0.5"/><stop offset="1" style="stop-color:#ff9018;stop-opacity:0"/></radialGradient>
        <radialGradient id="_Radial7" cx="0" cy="0" r="1" gradientUnits="userSpaceOnUse" gradientTransform="matrix(-0.147622,5.38876,-3.87354,-0.106113,48.6158,56.8586)"><stop offset="0" style="stop-color:#ff9018;stop-opacity:1"/><stop offset="1" style="stop-color:#ff9018;stop-opacity:0"/></radialGradient>
        <radialGradient id="_Radial8" cx="0" cy="0" r="1" gradientUnits="userSpaceOnUse" gradientTransform="matrix(-3.54015,2.82608,-3.34221,-4.18669,43.4229,43.4885)"><stop offset="0" style="stop-color:#ff9018;stop-opacity:0.5"/><stop offset="1" style="stop-color:#ff9018;stop-opacity:0"/></radialGradient>
        <radialGradient id="_Radial10" cx="0" cy="0" r="1" gradientUnits="userSpaceOnUse" gradientTransform="matrix(-2.59773,2.32117,-2.93149,-3.28078,43.148,42.5106)"><stop offset="0" style="stop-color:#ff9018;stop-opacity:1"/><stop offset="1" style="stop-color:#ff9018;stop-opacity:0"/></radialGradient>
        <radialGradient id="_Radial11" cx="0" cy="0" r="1" gradientUnits="userSpaceOnUse" gradientTransform="matrix(-2.85614,2.8375,-2.43848,-2.45449,38.7725,37.4661)"><stop offset="0" style="stop-color:#ff9018;stop-opacity:0.5"/><stop offset="1" style="stop-color:#ff9018;stop-opacity:0"/></radialGradient>
        <radialGradient id="_Radial13" cx="0" cy="0" r="1" gradientUnits="userSpaceOnUse" gradientTransform="matrix(-2.58856,2.15596,-1.70303,-2.04474,39.3911,36.738)"><stop offset="0" style="stop-color:#ff9018;stop-opacity:1"/><stop offset="1" style="stop-color:#ff9018;stop-opacity:0"/></radialGradient>
        <radialGradient id="_Radial14" cx="0" cy="0" r="1" gradientUnits="userSpaceOnUse" gradientTransform="matrix(-3.24984,4.58896,-3.72872,-2.64063,40.4732,40.2358)"><stop offset="0" style="stop-color:#ff9018;stop-opacity:0.5"/><stop offset="1" style="stop-color:#ff9018;stop-opacity:0"/></radialGradient>
        <radialGradient id="_Radial16" cx="0" cy="0" r="1" gradientUnits="userSpaceOnUse" gradientTransform="matrix(-3.24183,3.55876,-3.86938,-3.52479,41.4048,38.9489)"><stop offset="0" style="stop-color:#ff9018;stop-opacity:1"/><stop offset="1" style="stop-color:#ff9018;stop-opacity:0"/></radialGradient>
        <radialGradient id="_Radial17" cx="0" cy="0" r="1" gradientUnits="userSpaceOnUse" gradientTransform="matrix(1.63499,3.02205,-2.00781,1.08627,78.2295,33.0341)"><stop offset="0" style="stop-color:#ff9018;stop-opacity:0.5"/><stop offset="1" style="stop-color:#ff9018;stop-opacity:0"/></radialGradient>
        <radialGradient id="_Radial19" cx="0" cy="0" r="1" gradientUnits="userSpaceOnUse" gradientTransform="matrix(1.23126,2.11234,-1.28797,0.750744,77.757,32.2186)"><stop offset="0" style="stop-color:#ff9018;stop-opacity:1"/><stop offset="1" style="stop-color:#ff9018;stop-opacity:0"/></radialGradient>
        <radialGradient id="_Radial20" cx="0" cy="0" r="1" gradientUnits="userSpaceOnUse" gradientTransform="matrix(-2.46918,5.53111,-6.23026,-2.78129,51.6488,51.9723)"><stop offset="0" style="stop-color:#ff9018;stop-opacity:0.5"/><stop offset="1" style="stop-color:#ff9018;stop-opacity:0"/></radialGradient>
        <radialGradient id="_Radial22" cx="0" cy="0" r="1" gradientUnits="userSpaceOnUse" gradientTransform="matrix(-2.06599,5.365,-6.22429,-2.3969,51.11,50.1294)"><stop offset="0" style="stop-color:#ff9018;stop-opacity:1"/><stop offset="1" style="stop-color:#ff9018;stop-opacity:0"/></radialGradient>
        <radialGradient id="_Radial23" cx="0" cy="0" r="1" gradientUnits="userSpaceOnUse" gradientTransform="matrix(3.54059,8.02067,-4.61397,2.03676,79.8433,53.8441)"><stop offset="0" style="stop-color:#ff9018;stop-opacity:0.5"/><stop offset="1" style="stop-color:#ff9018;stop-opacity:0"/></radialGradient>
        <radialGradient id="_Radial25" cx="0" cy="0" r="1" gradientUnits="userSpaceOnUse" gradientTransform="matrix(2.67845,5.60043,-3.68964,1.7646,78.964,52.9286)"><stop offset="0" style="stop-color:#ff9018;stop-opacity:1"/><stop offset="1" style="stop-color:#ff9018;stop-opacity:0"/></radialGradient>
        <radialGradient id="_Radial26" cx="0" cy="0" r="1" gradientUnits="userSpaceOnUse" gradientTransform="matrix(1.39325,8.90578,-6.94566,1.0866,76.8589,45.9737)"><stop offset="0" style="stop-color:#ff9018;stop-opacity:0.5"/><stop offset="1" style="stop-color:#ff9018;stop-opacity:0"/></radialGradient>
        <radialGradient id="_Radial28" cx="0" cy="0" r="1" gradientUnits="userSpaceOnUse" gradientTransform="matrix(2.26371,6.92886,-4.716,1.54075,75.4933,42.7118)"><stop offset="0" style="stop-color:#ff9018;stop-opacity:1"/><stop offset="1" style="stop-color:#ff9018;stop-opacity:0"/></radialGradient>
        <radialGradient id="_Radial29" cx="0" cy="0" r="1" gradientUnits="userSpaceOnUse" gradientTransform="matrix(6.19388,5.63974,-4.26401,4.68297,72.914,46.5148)"><stop offset="0" style="stop-color:#ff9018;stop-opacity:0.5"/><stop offset="1" style="stop-color:#ff9018;stop-opacity:0"/></radialGradient>
        <radialGradient id="_Radial31" cx="0" cy="0" r="1" gradientUnits="userSpaceOnUse" gradientTransform="matrix(5.17579,5.57761,-4.11858,3.82187,71.0799,44.7058)"><stop offset="0" style="stop-color:#ff9018;stop-opacity:1"/><stop offset="1" style="stop-color:#ff9018;stop-opacity:0"/></radialGradient>
        <radialGradient id="_Radial32" cx="0" cy="0" r="1" gradientUnits="userSpaceOnUse" gradientTransform="matrix(0.013034,5.10403,-3.57254,0.00912311,58.6868,33.902)"><stop offset="0" style="stop-color:#ff9018;stop-opacity:0.5"/><stop offset="1" style="stop-color:#ff9018;stop-opacity:0"/></radialGradient>
        <radialGradient id="_Radial34" cx="0" cy="0" r="1" gradientUnits="userSpaceOnUse" gradientTransform="matrix(0.606766,3.92826,-2.68713,0.415058,58.2628,32.626)"><stop offset="0" style="stop-color:#ff9018;stop-opacity:1"/><stop offset="1" style="stop-color:#ff9018;stop-opacity:0"/></radialGradient>
        <radialGradient id="_Radial35" cx="0" cy="0" r="1" gradientUnits="userSpaceOnUse" gradientTransform="matrix(6.25097,3.70618,-2.14689,3.62102,82.0307,40.0295)"><stop offset="0" style="stop-color:#ff9018;stop-opacity:0.5"/><stop offset="1" style="stop-color:#ff9018;stop-opacity:0"/></radialGradient>
        <radialGradient id="_Radial37" cx="0" cy="0" r="1" gradientUnits="userSpaceOnUse" gradientTransform="matrix(4.84042,4.45249,-2.33803,2.54174,78.9864,38.2982)"><stop offset="0" style="stop-color:#ff9018;stop-opacity:1"/><stop offset="1" style="stop-color:#ff9018;stop-opacity:0"/></radialGradient>
        <radialGradient id="_Radial38" cx="0" cy="0" r="1" gradientUnits="userSpaceOnUse" gradientTransform="matrix(6.44693,3.82237,-2.65877,4.48437,79.1744,60.2795)"><stop offset="0" style="stop-color:#ff9018;stop-opacity:0.5"/><stop offset="1" style="stop-color:#ff9018;stop-opacity:0"/></radialGradient>
        <radialGradient id="_Radial40" cx="0" cy="0" r="1" gradientUnits="userSpaceOnUse" gradientTransform="matrix(5.00851,3.60312,-2.99335,4.16089,76.5312,58.3401)"><stop offset="0" style="stop-color:#ff9018;stop-opacity:1"/><stop offset="1" style="stop-color:#ff9018;stop-opacity:0"/></radialGradient>
        <radialGradient id="_Radial41" cx="0" cy="0" r="1" gradientUnits="userSpaceOnUse" gradientTransform="matrix(1.87905,7.6947,-4.65924,1.13779,73.3652,68.3521)"><stop offset="0" style="stop-color:#ff9018;stop-opacity:0.5"/><stop offset="1" style="stop-color:#ff9018;stop-opacity:0"/></radialGradient>
        <radialGradient id="_Radial43" cx="0" cy="0" r="1" gradientUnits="userSpaceOnUse" gradientTransform="matrix(0.910777,6.49403,-3.49271,0.489847,72.6996,66.929)"><stop offset="0" style="stop-color:#ff9018;stop-opacity:1"/><stop offset="1" style="stop-color:#ff9018;stop-opacity:0"/></radialGradient>
        <radialGradient id="_Radial44" cx="0" cy="0" r="1" gradientUnits="userSpaceOnUse" gradientTransform="matrix(-4.65512,4.03293,-2.71534,-3.13426,52.5655,70.8126)"><stop offset="0" style="stop-color:#ff9018;stop-opacity:0.5"/><stop offset="1" style="stop-color:#ff9018;stop-opacity:0"/></radialGradient>
        <radialGradient id="_Radial46" cx="0" cy="0" r="1" gradientUnits="userSpaceOnUse" gradientTransform="matrix(-3.40988,2.58119,-1.64064,-2.16736,54.1264,69.7768)"><stop offset="0" style="stop-color:#ff9018;stop-opacity:1"/><stop offset="1" style="stop-color:#ff9018;stop-opacity:0"/></radialGradient>
        <radialGradient id="_Radial47" cx="0" cy="0" r="1" gradientUnits="userSpaceOnUse" gradientTransform="matrix(-6.62562,1.78405,-1.35534,-5.03349,35.5263,49.3418)"><stop offset="0" style="stop-color:#ff9018;stop-opacity:0.5"/><stop offset="1" style="stop-color:#ff9018;stop-opacity:0"/></radialGradient>
        <radialGradient id="_Radial49" cx="0" cy="0" r="1" gradientUnits="userSpaceOnUse" gradientTransform="matrix(-4.50666,1.77604,-1.71197,-4.34407,37.442,49.4188)"><stop offset="0" style="stop-color:#ff9018;stop-opacity:1"/><stop offset="1" style="stop-color:#ff9018;stop-opacity:0"/></radialGradient>
        <radialGradient id="_Radial50" cx="0" cy="0" r="1" gradientUnits="userSpaceOnUse" gradientTransform="matrix(-1.35258,5.58781,-3.77032,-0.912641,62.3721,62.4244)"><stop offset="0" style="stop-color:#ff9018;stop-opacity:0.5"/><stop offset="1" style="stop-color:#ff9018;stop-opacity:0"/></radialGradient>
        <radialGradient id="_Radial52" cx="0" cy="0" r="1" gradientUnits="userSpaceOnUse" gradientTransform="matrix(-0.889759,4.63197,-3.05124,-0.586114,62.6948,61.1977)"><stop offset="0" style="stop-color:#ff9018;stop-opacity:1"/><stop offset="1" style="stop-color:#ff9018;stop-opacity:0"/></radialGradient>
        <radialGradient id="_Radial53" cx="0" cy="0" r="1" gradientUnits="userSpaceOnUse" gradientTransform="matrix(0.0856947,8.55601,-6.3007,0.0631062,63.9371,50.6468)"><stop offset="0" style="stop-color:#ff9018;stop-opacity:0.5"/><stop offset="1" style="stop-color:#ff9018;stop-opacity:0"/></radialGradient>
        <radialGradient id="_Radial55" cx="0" cy="0" r="1" gradientUnits="userSpaceOnUse" gradientTransform="matrix(0.0352623,7.1402,-5.08302,0.0251028,63.6595,48.4529)"><stop offset="0" style="stop-color:#ff9018;stop-opacity:1"/><stop offset="1" style="stop-color:#ff9018;stop-opacity:0"/></radialGradient>
        <radialGradient id="_Radial56" cx="0" cy="0" r="1" gradientUnits="userSpaceOnUse" gradientTransform="matrix(-2.18775,7.97887,-5.88463,-1.61352,46.4398,49.2494)"><stop offset="0" style="stop-color:#ff9018;stop-opacity:0.5"/><stop offset="1" style="stop-color:#ff9018;stop-opacity:0"/></radialGradient>
        <radialGradient id="_Radial58" cx="0" cy="0" r="1" gradientUnits="userSpaceOnUse" gradientTransform="matrix(-1.01001,6.17995,-4.65075,-0.760088,46.752,47.3348)"><stop offset="0" style="stop-color:#ff9018;stop-opacity:1"/><stop offset="1" style="stop-color:#ff9018;stop-opacity:0"/></radialGradient>
        <radialGradient id="_Radial59" cx="0" cy="0" r="1" gradientUnits="userSpaceOnUse" gradientTransform="matrix(50.5425,0,7.67591e-15,29.059,62.9241,47.0556)"><stop offset="0" style="stop-color:#ff9018;stop-opacity:0.33"/><stop offset="1" style="stop-color:#ff9018;stop-opacity:0"/></radialGradient>
    </defs>
</svg>
